<?xml version="1.0" encoding="utf-8"?>
<!-- Generator: Adobe Illustrator 27.5.0, SVG Export Plug-In . SVG Version: 6.00 Build 0)  -->
<svg version="1.1" xmlns="http://www.w3.org/2000/svg" xmlns:xlink="http://www.w3.org/1999/xlink" x="0px" y="0px"
	 viewBox="0 0 500 500" style="enable-background:new 0 0 500 500;" xml:space="preserve">
<g id="BACKGROUND">
</g>
<g id="OBJECTS">
	<g>
		<path style="fill:#EEF2F3;" d="M309.149,452.487c13.679-1.308,34.072-0.495,47.351-5.737c2.027-0.8,0.544-4.661-1.63-4.823
			c-11.781-0.879-27.643-5.245-39.12-5.501c-5.002-0.111-8.702,0.923-9.555-4.007c-0.332-1.92-1.23-3.768-2.663-5.038
			c-4.095-3.628-10.104-3.807-15.576-3.793c-29.287,0-58.574,0.15-87.861,0.225c-16.101,0.041-42.292-5.514-54.767,8.682
			c-1.556,1.77-0.789,4.552,1.469,5.227c32.465,9.71,71.033,10.231,101.703,14.069C268.632,454.31,288.954,454.418,309.149,452.487z
			"/>
		<g>
			<g>
				<path style="fill:#54BFCF;" d="M316.296,174.015c0.772-4.363,1.416-8.747,1.873-13.159c0.753-7.271,1.182-14.761-0.547-22.045
					c-0.468-1.97-1.538-4.59-3.051-7.225c-2.245-3.909-6.24-9.055-11.237-10.514c-7.09-2.07-10.941,4.4-12.098,9.548
					c-2.201,9.793-3.102,19.825-3.998,29.829c-0.121,1.355-0.243,2.71-0.364,4.065C297.219,166.276,306.858,169.997,316.296,174.015
					z"/>
				<path style="fill:#FFAB91;" d="M288.397,164.795c-0.55,5.514-1.1,11.028-1.65,16.541c-0.021,0.215-3.057,0.091-7.638-0.205
					c-10.284-0.665-28.376-2.2-37.784-2.738c-0.274-0.337-0.575-0.652-0.913-0.935c-1.074-0.9-2.411-1.536-3.816-1.793
					c-0.329-0.06-0.661-0.099-0.995-0.116c-2.028-0.102-3.807,0.94-5.807,1.027c-2.001,0.087-2.623,0.934-4.596,0.817
					c-0.121-0.007-4.59,0.27-4.59,0.27c-0.257,1.422,1.323,2.643,2.762,2.781c1.32,0.127,3.492,0.499,3.579,0.505
					c-0.412,0.327-0.802,0.653-1.174,0.932c-1.215,0.424-2.401,0.972-3.662,1.331c-1.314,0.374-2.649,0.648-4.011,0.777
					c-1.261,0.12-2.443-0.027-3.619,0.493c-0.963,0.425-1.383,1.856-0.266,2.431c2.42,1.245,5.943,0.323,8.463-0.361
					c0.342-0.093,0.69-0.19,1.039-0.294c-0.22,0.15-0.441,0.299-0.669,0.438c-1.254,0.764-1.198,1.609-2.559,2.111
					c-1.261,0.464-3.35-1.546-4.428-0.656c-0.883,0.729-0.399,2.759,0.878,3.112c1.241,0.343,2.386,0.458,3.491,0.366
					c0.333-0.192,0.815-0.219,1.332-0.212c0.888-0.223,1.763-0.595,2.654-1.121c0.249-0.147,0.501-0.299,0.754-0.455
					c-0.338,0.41-0.687,0.812-1.058,1.196c-0.479,0.496-1.462,0.392-2.35,0.379c-0.439,0.111-0.883,0.174-1.332,0.212
					c-0.146,0.085-0.266,0.199-0.344,0.361c-0.454,0.949,0.096,2.391,1.352,2.38c3.764-0.032,6.349-2.205,7.818-4.364
					c0.012-0.018,0.025-0.037,0.038-0.056c0.026,0.033,0.054,0.069,0.08,0.101c-0.234,0.736-0.505,1.46-0.832,2.163
					c-0.466,1.004-2.935,0.554-3.061,1.669c-0.103,0.913,0.587,1.586,1.679,1.477c2.518-0.252,4.658-1.733,5.053-3.908
					c0.186-1.023,2.725-3.236,3.509-4.049c0.248-0.257,0.894-0.823,1.694-1.516c10.458,4.551,40.245,12.906,53.246,17.127
					c3.742,1.215,4.29,1.527,7.944-0.734c0.014-0.008,0.026-0.016,0.039-0.024c5.494-3.408,5.776-6.478,7.117-12.039
					c1.447-5.999,2.755-12.037,3.836-18.114C301.222,168.282,297.628,166.351,288.397,164.795z"/>
			</g>
			<g>
				<path style="fill:#757575;" d="M152.243,281c-7.42,21.819-9.745,44.941-10.199,67.873c-0.263,13.315,0.132,26.625,0.652,39.929
					c0.556,14.206-0.409,21.729,2.713,42.042c0.793,5.156,7.337,4.697,6.605-0.572c-1.562-11.253-2.928-24.001-3.32-35.297
					c-0.37-10.652-0.66-21.315-0.752-31.974c-0.182-21.056,0.717-42.265,5.269-62.89c2.25-10.195,5.381-20.222,9.734-29.722
					c0.672-1.466,1.585-3.214,2.669-4.735c-1.205-1.875-2.555-3.656-4.088-5.303C156.692,265.943,154.262,275.063,152.243,281z"/>
				<path style="fill:#616161;" d="M185.206,272.056c-2.764-7.122-8.052-19.505-17.895-15.899c-2.253,0.825-4.155,2.31-5.785,4.195
					c1.533,1.647,2.883,3.427,4.088,5.303c2.447-3.434,5.768-5.703,9.168-0.912c3.498,4.93,5.429,11.072,7.295,16.764
					c3.504,10.688,6.117,21.614,8.161,32.655c1.491-2.424,3.117-4.759,4.856-7.019C192.71,295.153,189.585,283.341,185.206,272.056z
					"/>
				<path style="fill:#757575;" d="M195.086,348.563c2.766,25.719,4.257,51.572,8.064,77.173c0.562,3.777,6.511,3.402,5.964-0.419
					c-3.72-25.947-5.315-52.118-8.191-78.159c-1.463-13.246-3.189-26.739-5.828-40.015c-1.739,2.26-3.365,4.595-4.856,7.019
					C192.346,325.55,193.849,337.061,195.086,348.563z"/>
				<g>
					<path style="fill:#5F2C19;" d="M217.469,278.398c-4.098,6.592-4.958,15.096-2.264,22.376
						c-11.776,13.04-23.552,26.08-35.327,39.121c-1.887,2.09-3.84,4.301-4.503,7.038c-0.783,3.235,0.376,6.594,1.589,9.694
						c6.168,15.776,14.152,30.841,23.744,44.803c6-3.719,11.711-7.903,17.066-12.502c1.072-9.796-1.919-20.119-7.909-27.944
						c3.504,4.577,37.867-17.655,41.78-20.475c12.829-9.247,26.084-29.708,21.792-46.444c-14.004-0.662-32.233-1.118-45.344-6.081
						C225.101,286.85,218.247,281.5,217.469,278.398z"/>
					<path style="fill:#FFC0AC;" d="M224.708,410.353l-4.274-4.529l-5.535-14.505l-11.08,8.114l6.257,11.454l-9.511,10.868
						l-4.056,0.903c2.167,1.014,2.981,3.848,4.32,5.314C208.964,422.492,219.136,418.44,224.708,410.353z"/>
					<path style="fill:#91472C;" d="M226.42,412.167l-1.712-1.814c-5.572,8.087-15.744,12.139-23.88,17.621
						c-1.339-1.466-2.153-4.3-4.32-5.314l-0.374,0.083c-0.917,0.204-1.795,0.517-2.618,0.925c-3.51,1.74-2.962,6.921,0.822,7.932
						l3.581,0.957c3.95,1.056,8.165,0.289,11.49-2.09l16.372-11.713C227.946,417.205,228.247,414.103,226.42,412.167z"/>
				</g>
				<g>
					<path style="fill:#6D3521;" d="M239.496,278.019c-1.298,7.653,1.124,15.85,6.373,21.568
						c-5.965,16.527-11.929,33.054-17.894,49.581c-0.956,2.648-1.927,5.435-1.504,8.218c0.5,3.291,2.844,5.961,5.139,8.371
						c11.68,12.268,24.772,23.191,38.935,32.484c4.146-5.713,7.849-11.747,11.065-18.031c-2.715-9.473-9.391-17.896-17.897-22.871
						c4.976,2.91,28.368-30.673,30.923-34.765c8.374-13.415,12.9-37.37,2.593-51.237c-13.213,4.688-30.258,11.165-44.273,11.533
						C249.759,282.953,241.391,280.596,239.496,278.019z"/>
					<path style="fill:#FFC0AC;" d="M296.138,397.418l-5.67-2.574l-10.612-11.331l-7.185,11.704l10.126,8.234l-4.69,13.659
						l-3.413,2.371c2.389,0.119,4.216,2.434,6.01,3.284C286.16,414.613,294.041,407.012,296.138,397.418z"/>
					<path style="fill:#91472C;" d="M298.41,398.449l-2.272-1.031c-2.097,9.594-9.978,17.195-15.434,25.348
						c-1.794-0.85-3.621-3.165-6.01-3.284l-0.314,0.218c-1.476,1.025-2.668,2.363-3.512,3.888c-1.397,2.523,0.67,5.568,3.532,5.203
						l5.348-0.683c4.055-0.518,7.667-2.822,9.844-6.283l10.721-17.038C301.729,402.535,300.833,399.549,298.41,398.449z"/>
				</g>
				<g>
					<path style="fill:#A1887F;" d="M195.912,145.105c-0.974,2.197-3.939,2.444-6.341,2.36c-6.832-0.239-14.73-1.043-18.508-6.739
						c1.126-0.172,2.217-0.57,3.189-1.164c-3.623-0.142-5.627-4.195-6.639-7.677c-0.916-3.149-1.675-6.435-1.24-9.686
						s2.285-6.487,5.31-7.754c-1.681-0.689-3.131-1.928-4.075-3.48c2.538-0.307,4.585-2.284,5.887-4.485
						c1.302-2.2,2.049-4.683,3.22-6.956c2.442-4.738,6.786-8.461,11.841-10.148c5.056-1.688,10.765-1.321,15.563,0.999
						c1.88-3.37,6.821-3.971,10.665-3.637c6.814,0.593,14.502,2.141,18.049,7.99c1.471,2.425,2.011,5.303,3.31,7.824
						c1.299,2.521,3.844,4.816,6.644,4.369c-1.004,1.259-2.353,2.239-3.861,2.804c7.291,2.864,11.893,11.334,10.329,19.009
						c-0.528-2.09-1.561-4.051-2.987-5.668c2.642,5.869-0.684,13.653-6.751,15.8c0.689,1.182,2.611,1.349,3.494,0.303
						c-1.333,3.653-3.863,6.857-7.108,9.001c-4.327,2.858-9.655,3.75-14.832,4.043C212.399,152.706,202.787,150.418,195.912,145.105
						z"/>
					<g>
						<path style="fill:#C7B570;" d="M226.153,169.809c1.872,0.158,3.863,0.825,6,2.149c14.169,8.777,26.555,20.901,35.097,35.255
							c7.742,13.009,7.372,20.581,11.739,35.073c1.623,5.388,24.305,27.122,19.729,35.861c-4.467,8.531-68.747,27.679-84.426,21.321
							c-12.246-4.966-5.888-30.762-4.012-41.599c0.961-5.547,2.314-11.208,2.252-16.885c-0.052-4.838-5.523-0.043-9.897-6.464
							c-8.23-12.082-2.213-42.971,6.711-53.5C214.212,175.282,219.406,169.239,226.153,169.809z"/>
					</g>
					<g>
						<g>
							<path style="fill:#FFC0AC;" d="M206.491,162.206c0.082-0.586,0.328-1.135,0.578-1.671
								c2.19-4.692,11.996-23.398,18.784-19.979c0.083,0.042,0.16,0.09,0.238,0.136c-1.035,10.906-0.061,21.776,1.489,32.597
								c-5.786,3.332-10.965,7.715-15.182,12.892l-5.604-21.533C206.586,163.848,206.376,163.024,206.491,162.206z"/>
							<path style="fill:#FFAB91;" d="M210.071,177.241l-3.278-12.594c-0.208-0.799-0.418-1.624-0.303-2.441
								c0.082-0.586,0.328-1.135,0.578-1.671c2.19-4.692,11.996-23.398,18.784-19.979c0.083,0.042,0.16,0.09,0.238,0.136
								c-0.495,5.218-0.527,10.428-0.259,15.629C221.114,163.273,216.108,170.866,210.071,177.241z"/>
							<path style="fill:#FFC0AC;" d="M225.832,156.321c0.292,5.668,0.94,11.325,1.748,16.968
								c-2.929,6.126-8.376,12.295-15.182,12.892l-2.327-8.939C216.108,170.866,221.114,163.273,225.832,156.321z"/>
						</g>
						<g>
							<path style="fill:#FFCCBC;" d="M229.174,140.351c0.044,0,0.094-0.007,0.137-0.013c-0.108,0.026-0.229,0.037-0.346,0.041
								c-0.311,0.009-1.434-0.463-1.864-1.046c0.036-0.189,0.072-0.378,0.106-0.572C227.07,139.55,228.78,140.366,229.174,140.351z"
								/>
							<path style="fill:#FFCCBC;" d="M226.696,134.651c-0.358,0.322-0.726,0.522-1.084,0.515c0.268-0.075,0.546-0.247,0.816-0.478
								c0.419-0.363-0.237-2.203,0.375-2.743c0.815-0.729,1.863-1.183,2.905-1.308c-0.962,0.142-1.916,0.583-2.664,1.275
								C226.459,132.447,227.099,134.289,226.696,134.651z"/>
							<path style="fill:#FFCCBC;" d="M185.49,132.641c0.08-4.186,0.411-8.361,0.863-12.513c0.239-2.183,0.379-4.407,0.693-6.592
								c-0.58,0.39-1.155,0.79-1.728,1.194c-0.246,1.872-0.402,3.761-0.618,5.622c-0.49,4.158-0.855,8.337-0.956,12.526
								c-0.2,8.148,0.601,16.406,3.373,24.118c0.659,1.817,2.81,6.999,4.24,8.299c2.594,2.357,6.522,2.349,9.998,1.8
								c-3,0.317-6.175,0.045-8.367-2.021c-1.386-1.306-3.489-6.495-4.125-8.315C186.145,149.04,185.333,140.784,185.49,132.641z"/>
							<path style="fill:#FFC0AC;" d="M229.709,130.636c-0.962,0.142-1.916,0.583-2.664,1.275c-0.585,0.536,0.055,2.378-0.348,2.739
								c-0.358,0.322-0.726,0.522-1.084,0.515c-0.28-0.007-0.543-0.144-0.785-0.445c-0.614-0.766-2.099-1.255-2.907-1.798
								c-2.024-1.361-3.868-3.002-5.336-4.958c-1.973-2.63-3.167-5.733-3.522-8.998c-0.721-6.634-7.884-10.149-13.307-12.641
								c-4.403,2.085-8.646,4.481-12.708,7.212c-0.315,2.185-0.455,4.409-0.693,6.592c-0.452,4.153-0.784,8.328-0.863,12.513
								c-0.157,8.142,0.655,16.399,3.373,24.118c0.637,1.82,2.739,7.009,4.125,8.315c2.192,2.066,5.367,2.339,8.367,2.021
								l0.153-0.021c6.691-1.096,11.873-6.993,17.155-11.242c5.288-4.25,7.012-10.37,8.277-17.035
								c-0.037,0.183,0.032,0.363,0.162,0.536c0.036-0.189,0.071-0.378,0.106-0.572c-0.138,0.788,1.572,1.604,1.966,1.59
								c0.044,0,0.094-0.007,0.154-0.015c1.57-0.14,2.53-1.608,3.614-2.909c0.715-0.855,1.135-1.993,1.11-3.121
								c-0.006-0.333-0.051-0.667-0.14-0.995c-0.035-0.135-0.075-0.263-0.124-0.385C233.1,131.063,231.392,130.386,229.709,130.636z
								"/>
						</g>
						<path style="fill:#37474F;" d="M201.995,125.647c0.803-0.475,1.938-0.164,2.296,0.743c0.366,0.928-0.022,2.032-1.037,2.311
							c-0.461,0.127-0.959,0.06-1.35-0.237c-0.096-0.073-0.217-0.201-0.294-0.293c-0.088-0.117-0.16-0.242-0.217-0.374
							c-0.052-0.114-0.003-0.04,0.146,0.22C200.98,127.23,201.139,126.153,201.995,125.647z"/>
						<path style="fill:#37474F;" d="M185.477,125.098c0.803-0.475,1.938-0.164,2.296,0.743c0.366,0.928-0.022,2.032-1.037,2.311
							c-0.46,0.127-0.959,0.06-1.35-0.237c-0.095-0.073-0.217-0.201-0.294-0.293c-0.088-0.117-0.16-0.242-0.217-0.375
							c-0.052-0.114-0.003-0.041,0.146,0.22C184.462,126.68,184.622,125.604,185.477,125.098z"/>
						<path style="fill:#37474F;" d="M199.701,115.2c2.382-1.443,6.2-0.105,8.456,1.229c0.852,0.504,1.083,1.87,0.153,1.454
							c-1.267-0.567-3.297-0.886-4.654-1.026c-1.249-0.128-2.503,0.199-3.735-0.029C199.11,116.679,199.061,115.588,199.701,115.2z"
							/>
						<path style="fill:#37474F;" d="M185.242,116.448c0.911-1.441,3.132-1.898,4.834-1.54c1.366,0.288,1.121,1.939-0.342,1.911
							c-1.299-0.025-2.481,0.366-3.762,0.454C185.489,117.307,184.958,116.897,185.242,116.448z"/>
						<g>
							<path style="fill:#FFC0AC;" d="M179.503,145.154c-0.189,0.516-0.358,1.047-0.29,1.548c0.12,0.885,0.979,1.53,1.992,1.831
								c1.013,0.301,2.173,0.314,3.311,0.32c1.818,0.009,5.108,0.201,6.505-0.93c1.142-0.924,1.141-2.112,0.75-3.073
								c-1.388-3.406-0.869-8.031-2.377-11.35c-0.162-0.357-0.346-0.725-0.723-0.943
								C186.451,131.267,180.119,143.476,179.503,145.154z"/>
							
								<radialGradient id="SVGID_1_" cx="165.341" cy="-181.3488" r="12.8618" gradientTransform="matrix(-0.7826 0.252 0.2413 0.749 351.8461 242.0719)" gradientUnits="userSpaceOnUse">
								<stop  offset="0" style="stop-color:#FF8A65"/>
								<stop  offset="1" style="stop-color:#FF8864;stop-opacity:0"/>
							</radialGradient>
							<path style="opacity:0.65;fill:url(#SVGID_1_);" d="M180.372,144.874c-0.149,0.503-0.28,1.022-0.202,1.52
								c0.139,0.879,0.925,1.548,1.835,1.882c0.91,0.334,1.94,0.389,2.95,0.436c1.615,0.075,4.542,0.383,5.741-0.684
								c0.981-0.872,0.937-2.046,0.555-3.01c-1.355-3.416-1.062-7.969-2.521-11.303c-0.157-0.358-0.333-0.729-0.676-0.958
								C186.038,131.401,180.858,143.238,180.372,144.874z"/>
							<path style="fill:#FF8A65;" d="M179.049,145.555c0.507-1.89,1.88-3.854,2.896-5.607c1.142-1.969,2.323-4.013,3.823-5.821
								c0.128-0.155,0.38,0.003,0.285,0.161c-1.805,2.998-3.847,5.841-5.372,8.951c-0.407,0.829-0.973,1.686-1.094,2.566
								c-0.159,1.162,0.691,1.965,1.836,2.365c1.554,0.542,3.583,0.319,5.266,0.539c0.14,0.018,0.079,0.195-0.058,0.189
								c-1.996-0.089-4.115,0.398-5.915-0.418C179.46,147.911,178.694,146.876,179.049,145.555z"/>
							<path style="fill:#FF8A65;" d="M186.742,147.361c1.038-0.393,2.297-0.402,3.342-0.259c0.16,0.022,0.179,0.206,0.046,0.29
								c-0.19,0.121-0.374,0.238-0.574,0.345c-0.12,0.064-0.251-0.055-0.15-0.152c0.057-0.055,0.12-0.102,0.179-0.154
								c-0.94,0.021-1.85,0.144-2.801,0.21C186.591,147.654,186.564,147.428,186.742,147.361z"/>
							<path style="fill:#FF8A65;" d="M190.838,147.734c0.272-0.451,0.665-0.737,0.78-1.262c0.118-0.535-0.061-0.939-0.272-1.4
								c-0.04-0.086,0.099-0.139,0.167-0.099c0.516,0.3,0.656,0.962,0.57,1.501c-0.081,0.505-0.426,1.273-1.061,1.45
								C190.884,147.961,190.768,147.85,190.838,147.734z"/>
						</g>
						<path style="fill:#FF8A65;" d="M228.387,136.601c0.264-0.052,0.489-0.027,0.682-0.245c0.242-0.274,0.18-0.651,0.144-0.987
							c-0.043-0.395-0.612-1.121-0.596-1.521c0.026-0.665,0.794-1.006,1.476-1.21c0.692-0.207,1.425,0.188,1.78,0.785
							c0.477,0.8,0.315,1.68-0.051,2.48c-0.044,0.096-0.205,0.088-0.215-0.028c-0.06-0.713,0.038-2.632-1.14-2.452
							c-0.932,0.143-0.358,1.708-0.339,2.29c0.018,0.564-0.158,1.112-0.617,1.467c-0.408,0.316-1.017,0.436-1.352-0.02
							C227.999,136.939,228.127,136.652,228.387,136.601z"/>
						<path style="fill:#37474F;" d="M227.956,136.257c0.026-0.025,0.051-0.05,0.077-0.076c0.044-0.043,0.115-0.041,0.168-0.023
							c0.315,0.045,0.512-0.152,0.592-0.591c-0.08-0.207-0.201-0.384-0.363-0.53c-0.104-0.168-0.201-0.274-0.263-0.465
							c-0.121-0.37-0.07-0.778,0.094-1.128c0.356-0.761,1.177-1.187,1.992-1.231c0.826-0.045,1.516,0.291,1.916,1.019
							c0.333,0.607,0.499,1.675,0.059,2.259c-0.082,0.109-0.26,0.034-0.243-0.101c0.072-0.548,0.244-0.978-0.067-1.512
							c-0.23-0.395-0.589-0.664-1.019-0.818c-0.49-0.176-1.056-0.127-1.491,0.171c-0.655,0.449-0.586,0.919-0.191,1.476
							c0.689,0.972,0.244,2.295-1.078,2.226C227.777,136.915,227.746,136.461,227.956,136.257z"/>
						<path style="fill:#FF8A65;" d="M229.123,137.909c0.227-0.02,0.413,0.137,0.643,0.11c0.243-0.029,0.386-0.164,0.561-0.316
							c0.091-0.079,0.265-0.017,0.27,0.11c0.016,0.392-0.336,0.691-0.689,0.781c-0.343,0.087-0.941,0.031-0.991-0.416
							C228.904,138.055,228.991,137.921,229.123,137.909z"/>
						<path style="fill:#FF8A65;" d="M202.767,130.532c0.427-0.073,0.826-0.06,1.229-0.247c0.426-0.197,0.686-0.517,0.996-0.853
							c0.158-0.171,0.499-0.083,0.451,0.187c-0.195,1.1-1.711,2.028-2.766,1.603C202.336,131.085,202.423,130.591,202.767,130.532z"
							/>
						<path style="fill:#FF8A65;" d="M184.835,128.958c0.339,0.107,0.672,0.334,0.933,0.571c0.236,0.214,0.029,0.686-0.299,0.519
							c-0.342-0.173-0.685-0.404-0.925-0.708C184.38,129.132,184.61,128.887,184.835,128.958z"/>
						<path style="fill:#FF8A65;" d="M206.188,130.223c-0.639,1.735-1.994,2.678-3.804,2.871c-0.171,0.018-0.16,0.267,0.002,0.293
							c1.951,0.32,3.884-1.164,4.312-3.033C206.766,130.058,206.291,129.944,206.188,130.223z"/>
						<path style="fill:#FF8A65;" d="M185.428,131.688c-0.183,0.048-0.343,0.102-0.512,0.19c-0.281,0.148-0.107,0.555,0.194,0.453
							c0.18-0.061,0.33-0.141,0.491-0.24C185.787,131.976,185.64,131.631,185.428,131.688z"/>
						<path style="fill:#FF8A65;" d="M193.327,145.169c-0.268,0.031-0.276,0.466,0.003,0.481c0.787,0.043,1.546,0.194,2.269,0.515
							c0.73,0.324,1.282,0.844,1.893,1.34c0.291,0.236,0.608-0.166,0.428-0.444C196.994,145.636,194.952,144.98,193.327,145.169z"/>
						<path style="fill:#FF8A65;" d="M196.445,143.474c-0.145-0.015-0.177,0.171-0.06,0.233c0.638,0.342,1.302,0.596,1.916,0.986
							c0.563,0.357,1.071,0.781,1.587,1.201c0.189,0.154,0.458-0.123,0.297-0.309C199.292,144.552,197.827,143.621,196.445,143.474z
							"/>
						<path style="fill:#FF8A65;" d="M192.242,155.714c-1.322-0.523-2.15-1.548-3.375-2.135c-0.083-0.04-0.188,0.044-0.17,0.133
							c0.259,1.301,1.529,2.141,2.701,2.72c-0.86,2.029-0.872,4.307,0.229,6.263c0.224,0.399,0.796,0.16,0.655-0.281
							c-0.665-2.074-0.668-4.044,0.243-6.043C192.637,156.123,192.487,155.811,192.242,155.714z"/>
						<path style="fill:#FF8A65;" d="M202.396,151.966c-2.86,3.041-6.161,4.168-10.297,3.862c-0.261-0.019-0.383,0.362-0.118,0.459
							c3.947,1.439,8.804-0.337,11.061-3.843C203.327,152.001,202.746,151.594,202.396,151.966z"/>
						<path style="fill:#FF8A65;" d="M201.522,150.563c-0.2-0.109-0.365,0.211-0.19,0.342c0.613,0.457,1.185,0.952,1.681,1.537
							c0.408,0.48,0.704,1.058,1.165,1.485c0.146,0.136,0.424-0.032,0.379-0.225C204.234,152.343,202.682,151.192,201.522,150.563z"
							/>
						<path style="fill:#FF8A65;" d="M195.847,155.895c-0.39-0.379-0.986-0.461-1.441-0.786c-0.523-0.374-0.952-0.84-1.393-1.303
							c-0.063-0.066-0.197-0.005-0.148,0.089c0.285,0.545,0.694,1.006,1.152,1.414c0.409,0.365,1.016,0.997,1.574,1.046
							C195.81,156.374,196.038,156.08,195.847,155.895z"/>
						<path style="fill:#FF8A65;" d="M198.689,154.999c-0.667-0.922-1.287-1.875-1.963-2.791c-0.088-0.118-0.295,0.001-0.226,0.135
							c0.518,1.011,1.094,1.989,1.622,2.995C198.347,155.767,198.975,155.393,198.689,154.999z"/>
						<path style="fill:#FF8A65;" d="M195.185,155.944c0.085,1.726,0.853,3.241,2.177,4.348c0.1,0.084,0.257-0.073,0.162-0.168
							c-1.132-1.123-1.754-2.585-1.737-4.184C195.791,155.503,195.164,155.503,195.185,155.944z"/>
						<path style="fill:#FF8A65;" d="M215.41,134.876c-0.359,2.667-2.016,4.849-4.56,5.787c-0.282,0.104-0.097,0.517,0.182,0.425
							c2.715-0.893,4.747-3.266,5.092-6.123C216.181,134.503,215.472,134.416,215.41,134.876z"/>
						<path style="fill:#FF8A65;" d="M214.829,140.39c-0.487,0.639-0.856,1.187-1.731,1.26c-0.236,0.02-0.24,0.418,0.003,0.421
							c0.89,0.012,2.042-0.521,2.137-1.518C215.259,140.328,214.969,140.207,214.829,140.39z"/>
						<path style="fill:#FF8A65;" d="M201.434,110.819c-1.413-0.616-3.111-0.181-4.606-0.005c-1.992,0.234-3.954,0.609-5.906,1.064
							c-0.304,0.071-0.25,0.542,0.067,0.488c1.85-0.311,3.708-0.548,5.577-0.705c1.572-0.132,3.446,0.153,4.872-0.547
							C201.562,111.052,201.564,110.876,201.434,110.819z"/>
						<path style="fill:#FF8A65;" d="M201.733,109.111c-2.561-0.18-5.056,0.066-7.53,0.758c-0.217,0.061-0.114,0.429,0.106,0.384
							c2.422-0.502,4.865-0.623,7.323-0.337C202.154,109.977,202.252,109.148,201.733,109.111z"/>
					</g>
					<path style="fill:#8D8250;" d="M212.194,191.305c0.104,2.211-0.201,4.376-1.09,6.412c-0.43,0.986-0.974,2.201-1.908,2.8
						c-2.03,1.302-3.42-0.188-3.987-1.977c-1.247-3.936-0.472-8.501,1.255-12.152c0.094-0.198-0.198-0.352-0.303-0.157
						c-1.458,2.714-2.237,5.636-2.139,8.73c0.065,2.048,0.309,5.428,2.283,6.635c4.922,3.01,6.873-7.585,6.76-10.322
						C213.042,190.714,212.168,190.745,212.194,191.305z"/>
					<path style="fill:#8D8250;" d="M230.56,173.661c0.046,5.633-0.95,11.169-3.482,16.234c-1.14,2.28-2.534,4.676-4.435,6.407
						c-1.745,1.589-4.085,2.35-6.14,0.798c-1.803-1.362-2.41-3.56-3.09-5.614c-0.105-0.318-0.566-0.171-0.493,0.149
						c0.693,3.065,2.153,7.119,5.872,7.358c3.009,0.193,5.356-2.421,6.915-4.656c4.165-5.971,6.335-13.438,5.686-20.706
						C231.346,173.099,230.556,173.121,230.56,173.661z"/>
					<path style="fill:#757575;" d="M241.045,268.729c-3.317-3.292-9.527-4.293-14.144-5.345c-6.135-1.398-12.407-2.24-18.677-2.978
						c-13.555-1.595-27.147-3.261-40.757-4.444c-4.114-0.357-5.549,5.37-1.328,5.943c13.191,1.792,26.488,3.003,39.721,4.526
						c5.618,0.646,11.233,1.361,16.765,2.464c5.557,1.107,11.249,4.035,16.891,4.003C241.97,272.885,242.41,270.083,241.045,268.729
						z"/>
					<path style="fill:#757575;" d="M220.917,306.708c-3.131-3.305-8.972-4.332-13.316-5.403c-5.772-1.423-11.67-2.292-17.566-3.055
						c-12.747-1.652-25.528-3.375-38.324-4.614c-3.868-0.375-5.192,5.345-1.223,5.936c12.405,1.848,24.907,3.114,37.35,4.692
						c5.283,0.67,10.563,1.409,15.767,2.534c5.228,1.13,10.59,4.082,15.892,4.073C221.803,310.867,222.205,308.068,220.917,306.708z
						"/>
					<path style="fill:#616161;" d="M258.169,299.657c-3.131-3.305-8.972-4.332-13.316-5.403c-5.772-1.423-11.67-2.292-17.566-3.055
						c-12.747-1.652-25.528-3.375-38.324-4.614c-3.868-0.375-5.192,5.345-1.223,5.936c12.405,1.848,24.907,3.114,37.35,4.692
						c5.283,0.67,10.563,1.408,15.767,2.534c5.228,1.13,10.59,4.082,15.892,4.073C259.056,303.815,259.457,301.017,258.169,299.657z
						"/>
					<g>
						<g>
							<path style="fill:#FFC0AC;" d="M167.402,264.019c-1.28-1.54-1.591-3.822-0.77-5.648c0.887-1.97,2.706-2.907,4.742-3.17
								c2.733-0.352,3.602-0.268,6.084-1.744c2.897-1.724,6.389-2.749,9.774-2.785c0.62-0.006,1.309-0.004,1.954,0.073
								c0.786,0.875,1.547,1.769,2.286,2.683c-0.278,0.744-1.31,1.188-1.622,1.885c-0.456,1.02-0.071,1.722-0.248,2.736
								c-0.375,2.155-0.872,3.809-3.651,3.763c-0.682-0.012-1.362-0.149-2.039-0.078c-1.681,0.177-2.942,1.562-4.033,2.852
								c-1.192-0.371-2.065-1.379-2.797-2.39c-0.732-1.011-1.422-2.103-2.462-2.792c-1.041-0.689-2.569-0.843-3.461,0.03
								c-0.259,0.254-0.454,0.613-0.387,0.969c0.047,0.249,0.212,0.456,0.358,0.663c0.836,1.181,1.055,3.062-0.125,3.9
								C169.889,265.756,168.276,265.07,167.402,264.019z"/>
							<path style="fill:#FFC0AC;" d="M171.19,268.046c-1.28-1.54-1.591-3.822-0.77-5.648c0.887-1.971,2.706-2.907,4.742-3.17
								c1.353-0.174,2.249-0.242,3.111-0.445l-0.153,4.485c-1.02-0.541-2.36-0.605-3.174,0.193
								c-0.259,0.254-0.454,0.613-0.387,0.969c0.047,0.249,0.212,0.456,0.358,0.663c0.835,1.181,1.055,3.062-0.125,3.899
								C173.678,269.784,172.064,269.097,171.19,268.046z"/>
							<path style="fill:#FFC0AC;" d="M179.288,271.398c-1.67-0.017-3.289-1.051-4.007-2.56c-0.774-1.628-0.388-3.29,0.544-4.726
								c0.62-0.955,1.06-1.561,1.396-2.218l2.769,2.518c-0.894,0.357-1.659,1.174-1.591,2.122c0.021,0.302,0.145,0.62,0.408,0.769
								c0.184,0.104,0.404,0.111,0.615,0.13c1.202,0.106,2.517,0.983,2.412,2.185C181.736,270.754,180.428,271.41,179.288,271.398z"
								/>
							<path style="fill:#FFC0AC;" d="M184.578,267.273c-1.17,0.637-2.7,0.545-3.785-0.226c-1.172-0.833-1.548-2.141-1.457-3.504
								c0.061-0.906,0.132-1.499,0.111-2.088l2.907,0.678c-0.484,0.596-0.699,1.462-0.284,2.097
								c0.132,0.202,0.342,0.375,0.583,0.378c0.169,0.001,0.325-0.08,0.479-0.148c0.878-0.393,2.135-0.293,2.529,0.585
								C186.033,265.873,185.377,266.838,184.578,267.273z"/>
						</g>
						<path style="fill:#FFC0AC;" d="M188.027,250.389c0.462,2.569,0.705,3.626,0.954,4.728c0.207,0.915,12.923,0.788,21.621,0.738
							c1.097-4.481,1.988-8.947,1.975-13.35C202.583,245.67,187.947,249.944,188.027,250.389z"/>
					</g>
					<g>
						<g>
							<path style="fill:#FFC0AC;" d="M231.057,255.873c-0.619-0.197-1.296-0.329-1.906-0.439
								c-3.331-0.602-6.954-0.252-10.123,0.896c-2.715,0.983-3.552,0.736-6.303,0.568c-0.843-0.052-1.668,0.025-2.438,0.245
								c-0.209,0.83-0.422,1.66-0.635,2.489c0.213-0.83,0.426-1.66,0.635-2.489c-1.101,0.315-2.085,0.935-2.815,1.976
								c-1.151,1.639-1.275,3.939-0.307,5.692c0.66,1.197,2.116,2.174,3.36,1.607c1.316-0.6,1.455-2.49,0.857-3.806
								c-0.105-0.23-0.228-0.465-0.227-0.718c0.001-0.362,0.26-0.679,0.562-0.879c1.04-0.69,2.512-0.252,3.405,0.621
								c0.893,0.873,1.364,2.075,1.893,3.206c0.529,1.131,1.197,2.284,2.298,2.873c1.315-1.062,2.814-2.185,4.498-2.043
								c0.678,0.057,1.32,0.321,1.988,0.46c2.721,0.569,3.52-0.962,4.294-3.008c0.364-0.962,0.118-1.725,0.758-2.64
								c0.437-0.625,1.535-0.867,1.948-1.546C232.243,257.902,231.664,256.88,231.057,255.873z"/>
							<path style="fill:#FFC0AC;" d="M210.127,269.479c-0.968-1.753-0.844-4.053,0.307-5.692c1.242-1.768,3.205-2.346,5.253-2.221
								c1.362,0.083,2.255,0.185,3.139,0.148l-0.994,4.376c-0.9-0.723-2.204-1.038-3.154-0.408c-0.302,0.2-0.561,0.517-0.562,0.879
								c-0.001,0.253,0.123,0.487,0.227,0.718c0.598,1.317,0.46,3.206-0.857,3.806C212.244,271.654,210.788,270.676,210.127,269.479
								z"/>
							<path style="fill:#FFC0AC;" d="M217.45,274.295c-1.637-0.331-3.033-1.652-3.454-3.268c-0.454-1.744,0.238-3.305,1.424-4.539
								c0.788-0.821,1.335-1.334,1.789-1.916l2.246,2.995c-0.945,0.182-1.85,0.841-1.962,1.785c-0.036,0.3,0.026,0.636,0.256,0.832
								c0.161,0.137,0.376,0.185,0.579,0.243c1.16,0.33,2.287,1.439,1.958,2.599C219.975,274.123,218.568,274.521,217.45,274.295z"
								/>
							<path style="fill:#FFC0AC;" d="M223.422,271.239c-1.269,0.406-2.754,0.028-3.675-0.935c-0.994-1.038-1.118-2.394-0.772-3.715
								c0.23-0.878,0.412-1.448,0.502-2.029l2.728,1.213c-0.588,0.494-0.962,1.305-0.673,2.006c0.092,0.223,0.265,0.433,0.501,0.48
								c0.165,0.033,0.334-0.017,0.498-0.056c0.937-0.221,2.151,0.114,2.373,1.05C225.113,270.138,224.288,270.962,223.422,271.239z
								"/>
						</g>
						<path style="fill:#FFC0AC;" d="M257.96,229.602c-9.597,6.185-30.857,25.134-30.373,25.901
							c1.393,2.207,2.016,3.095,2.661,4.023c1.541,2.215,28.982-9.753,39.608-16.101C266.636,238.29,263.068,233.337,257.96,229.602
							z"/>
						<path style="fill:#C7B570;" d="M280.679,210.533c-5.768-7.7-11.836-15.194-18.522-22.12
							c-4.605-4.77-9.523-9.462-15.389-12.657c-1.587-0.864-3.923-1.728-6.493-2.318c-3.813-0.875-9.357-1.365-12.879,0.959
							c-4.997,3.297-2.506,9.569,0.44,13.344c5.603,7.18,12.025,13.673,18.431,20.147c4.405,4.452,8.809,8.903,13.214,13.355
							c0.568,0.574,1.164,1.202,1.292,1.999c0.123,0.769-0.218,1.532-0.279,2.309c-0.061,0.777,0.381,1.738,1.159,1.709
							c-1.165,0.726-2.406,1.513-3.693,2.343c5.109,3.735,8.677,8.688,11.896,13.822c4.668-2.789,9.101-5.523,13.05-8.03
							c3.026-1.921,7.541-4.668,8.075-8.573C291.777,221.007,283.792,214.689,280.679,210.533z"/>
						<path style="fill:#8D8250;" d="M263.1,223.166c2.761-0.778,5.62-0.581,8.202,0.697c0.397,0.197,0.182,0.848-0.238,0.662
							c-2.411-1.068-5.158-1.26-7.653-0.344C262.693,224.445,262.346,223.378,263.1,223.166z"/>
						<path style="fill:#8D8250;" d="M264.349,224.979c1.943,0.823,3.581,2.073,4.854,3.758c0.208,0.275-0.193,0.617-0.414,0.346
							c-1.264-1.546-2.829-2.679-4.703-3.373C263.615,225.536,263.89,224.785,264.349,224.979z"/>
						<path style="fill:#8D8250;" d="M263.832,227.577c1.238,0.036,2.124,1.279,2.349,2.396c0.066,0.326-0.429,0.404-0.506,0.086
							c-0.268-1.103-1.062-1.575-1.985-2.09C263.488,227.857,263.637,227.572,263.832,227.577z"/>
						<path style="fill:#8D8250;" d="M287.086,217.187c-2.533-3.141-5.102-6.253-7.644-9.386
							c-5.077-6.256-9.999-12.712-15.599-18.513c-0.109-0.113-0.272,0.028-0.185,0.155c3.934,5.755,8.482,11.081,12.894,16.472
							c3.976,4.859,8.584,9.601,11.926,14.925c2.001,3.187,2.574,6.663-0.284,9.627c-2.048,2.123-4.876,3.576-7.331,5.156
							c-3.943,2.537-7.99,4.986-11.921,7.58c0.225,0.287,0.446,0.578,0.666,0.869c5.116-3.059,10.12-6.378,15.116-9.561
							c3.894-2.481,7.719-5.759,6.266-10.849C290.292,221.218,288.654,219.133,287.086,217.187z"/>
						<path style="fill:#8D8250;" d="M231.857,193.369c-0.095-0.125,0.062-0.325,0.196-0.215c5.209,4.262,9.685,9.505,14.357,14.34
							c4.922,5.094,10.099,10.04,14.772,15.363c0.431,0.491-0.309,1.064-0.761,0.637c-5.017-4.742-9.652-9.956-14.439-14.93
							C241.219,203.615,236.012,198.844,231.857,193.369z"/>
						<path style="fill:#8D8250;" d="M260.866,222.625c-1.477,1.081-1.112,3.034-0.197,4.41c-0.872,0.538-2.242,1.378-3.787,2.363
							c0.253,0.243,0.508,0.485,0.76,0.73c1.617-1.041,3.07-1.963,4.045-2.585c0.221-0.141,0.218-0.507,0.061-0.688
							c-1.197-1.383-0.822-2.546-0.691-4.13C261.066,222.62,260.946,222.567,260.866,222.625z"/>
					</g>
					<path style="fill:#757575;" d="M269.507,358.36c-2.783-25.208-6.489-51.323-15.716-75.102
						c-2.764-7.122-8.052-19.505-17.895-15.899c-8.935,3.274-12.368,16.904-15.068,24.843c-7.42,21.819-9.745,44.941-10.199,67.873
						c-0.263,13.315,0.132,26.625,0.652,39.929c0.556,14.206-0.409,21.729,2.713,42.042c0.792,5.156,7.337,4.697,6.605-0.572
						c-1.562-11.253-2.928-24.001-3.32-35.297c-0.371-10.652-0.66-21.315-0.752-31.973c-0.182-21.056,0.717-42.265,5.269-62.89
						c2.25-10.195,5.381-20.222,9.734-29.722c2.188-4.775,6.931-12.56,11.836-5.646c3.498,4.93,5.429,11.072,7.295,16.764
						c7.117,21.711,10.573,44.402,13.009,67.056c2.766,25.719,4.257,51.572,8.064,77.173c0.561,3.777,6.511,3.402,5.964-0.419
						C273.978,410.572,272.382,384.401,269.507,358.36z"/>
				</g>
			</g>
			<g>
				<path style="fill:#FF8865;" d="M271.526,76.688c-5.724-4.873-9.062-12.427-8.811-19.94s4.085-14.827,10.121-19.308
					c0.995-4.797,4.43-9.812,8.85-11.928c8.939-4.279,21.202-2.307,30.433,0.131c11.509,3.04,21.401,12.37,25.576,23.474
					c4.898,13.027,2.814,29.237-5.396,40.547c-8.039,11.074-22.695,11.598-34.068,5.618c-0.386-0.203-0.771-0.408-1.154-0.616
					C288.429,89.978,279.016,83.064,271.526,76.688z"/>
				<g>
					<polygon style="fill:#FFC0AC;" points="347.796,417.445 349.048,431.189 338.685,432.132 335.212,418.591 					"/>
					<path style="fill:#3E9FA8;" d="M307.789,340.128c-4.988-22.605-8.641-86.626-8.641-86.626
						c-3.557-8.473-2.211-24.273-2.211-24.273c2.508-19.061,30.641-24.53,36.771-7.688c17.565,48.253-8.194,118.035-8.194,118.035
						c19.328,24.742,17.475,35.037,18.763,48.985c0.785,8.501,4.028,27.731,4.659,32.574c-5.664,1.828-7.231,2.287-13.344,1.624
						C335.592,422.759,309.207,346.552,307.789,340.128z"/>
					<path style="fill:#C2D4D6;" d="M349.048,431.189c0,0,5.299,3.19,6.279,13.953l-43.879,3.996c0,0-0.046-6.006,6.494-7.52
						c6.54-1.514,19.691-13.584,19.691-13.584l1.371,1.32c1.509,1.453,3.556,2.211,5.647,2.089L349.048,431.189z"/>
				</g>
				<g>
					<polygon style="fill:#FFC0AC;" points="289.074,419.79 284.185,432.695 274.453,429.008 277.257,415.313 					"/>
					<path style="fill:#5EBFC5;" d="M287.607,338.919c3.55-14.777,9.431-42.163,15.896-61.997
						c2.906-8.916,8.389-25.189,8.389-25.189l-1.119-33.806c10.596-16.041,59.229,3.91,57.371,21.736
						c-5.324,51.074-63.317,95.917-63.317,95.917c6.551,30.706,0.715,36.346-4.232,49.451c-3.015,7.987-10.877,33.894-12.43,38.525
						c-5.893-0.835-7.183-1.056-12.39-4.328C275.774,419.228,286.07,345.315,287.607,338.919z"/>
					<path style="fill:#C1D3D5;" d="M284.185,432.695c0,0,3.368,5.188-0.461,15.294l-41.203-15.611c0,0,2.587-5.421,9.13-3.919
						c6.543,1.501,23.65-3.596,23.65-3.596l0.655,1.787c0.721,1.967,2.23,3.544,4.163,4.35L284.185,432.695z"/>
				</g>
				<g>
					<path style="fill:#9DE6ED;" d="M315.216,111.046c3.227,0.434,6.771,3.232,9.587,4.526
						c30.482,14.005,19.418,59.226,21.004,76.661c0.59,6.482,27.949,33.994,23.949,52.881c-2.196,10.37-40.496,12.435-50.742,11.66
						c-4.591-0.348-13.34-11.453-16.202-16.671c-0.731-1.333,1.092,15.04,1.092,15.04c-4.536-0.621-12.41,0.004-10.59-23.911
						c1.257-16.525,3.607-40.446,5.066-54.24c0.273-2.577-1.423-4.903-3.935-5.536c-2.929-0.738-6.395-3.144-7.499-10.149
						c-1.467-9.311,4.954-37.573,10.569-42.244C300.965,116.19,309.026,110.672,315.216,111.046z"/>
				</g>
				<path style="fill:#54BFCF;" d="M298.58,141.132c-5.263-2.782-7.232-7.207-5.418-12.955c0.092-0.292-0.338-0.369-0.473-0.15
					c-3.122,5.092-0.226,12.563,5.584,14.067C298.854,142.244,299.068,141.39,298.58,141.132z"/>
				<path style="fill:#54BFCF;" d="M322.202,114.785c-3.404,4.679-6.231,9.689-8.452,15.035c-0.888,2.139-1.452,6.148-3.275,7.639
					c-2.429,1.988-5.929,3.129-8.62,4.771c-0.403,0.246-0.043,0.929,0.392,0.734c2.996-1.338,5.891-2.917,8.82-4.394
					c2.165-1.092,2.225-3.868,3.046-6.028c2.287-6.012,5.36-11.708,8.955-17.036C323.468,114.915,322.634,114.191,322.202,114.785z"
					/>
				<path style="fill:#54BFCF;" d="M303.261,172.402c-4.229-2.942-6.827-6.587-7.14-11.894c-0.346-5.849,2.05-11.09,3.714-16.548
					c0.141-0.464-0.582-0.654-0.785-0.25c-2.814,5.59-5.198,12.447-4.048,18.768c0.785,4.315,3.348,9.431,7.879,10.741
					C303.323,173.347,303.634,172.661,303.261,172.402z"/>
				<path style="fill:#54BFCF;" d="M303.237,172.718c-0.032-0.132-0.241-0.129-0.289-0.011c-0.923,2.248-0.77,4.97-0.936,7.376
					c-0.196,2.823-0.335,5.649-0.461,8.476c-0.248,5.534-0.404,11.071-0.463,16.61c-0.061,5.661-0.028,11.322,0.099,16.982
					c0.129,5.775,0.031,11.761,0.889,17.481c0.078,0.52,0.774,0.43,0.793-0.072c0.216-5.633-0.335-11.351-0.46-16.989
					c-0.126-5.66-0.158-11.322-0.096-16.983c0.065-5.959,0.226-11.919,0.488-17.873c0.124-2.829,0.278-5.657,0.423-8.485
					C303.335,177.092,303.751,174.812,303.237,172.718z"/>
				<path style="fill:#54BFCF;" d="M348.487,217.778c-1.941,1.401-3.762,2.951-5.603,4.479c-0.762,0.633-1.545,1.416-2.362,1.975
					c-1.559,1.068-3.18,1.054-4.94,0.6c-4.398-1.134-8.789-2.521-13.263-3.324c-0.289-0.052-0.452,0.397-0.161,0.505
					c2.406,0.892,4.9,1.54,7.366,2.245c2.574,0.736,5.467,1.991,8.148,2.185c2.206,0.16,3.529-1.191,5.147-2.514
					c2.154-1.762,4.331-3.498,6.359-5.405C349.609,218.119,348.949,217.445,348.487,217.778z"/>
				<path style="fill:#54BFCF;" d="M345.569,214.883c-6.342,0.808-12.656,2.347-18.913,3.647c-0.418,0.087-0.375,0.749,0.061,0.676
					c6.335-1.076,12.801-1.954,19.036-3.52C346.209,215.571,346.028,214.825,345.569,214.883z"/>
				<path style="fill:#54BFCF;" d="M324.007,152.251c-5.941-1.274-12.156-0.485-17.929,1.231c-0.629,0.187-0.267,1.128,0.358,0.952
					c5.796-1.63,11.46-1.733,17.431-1.407C324.361,153.054,324.516,152.36,324.007,152.251z"/>
				<g>
					<g>
						<path style="fill:#FFAB91;" d="M297.014,119.859c0,0-3.155-14.771-3-15.606c0.111-0.598,0.388-1.151,0.669-1.69
							c2.461-4.721,13.377-23.494,20.195-19.676c0.084,0.047,0.16,0.1,0.238,0.151c-0.744,5.338-1.011,10.688-0.97,16.042
							C308.987,106.008,303.502,113.582,297.014,119.859z"/>
						<path style="fill:#FFC0AC;" d="M312.689,118.734c0.166-0.155,0.327-0.303,0.48-0.437c0.182-0.172,0.36-0.346,0.537-0.521
							c0.92-0.917,1.373-2.2,1.256-3.493c-0.46-5.066-0.776-10.137-0.815-15.203c-5.16,6.929-10.645,14.503-17.132,20.78
							l0.746,5.137c0.158,1.086,1.272,1.765,2.304,1.393C304.54,124.774,309.011,122.09,312.689,118.734z"/>
					</g>
					<g>
						<path style="fill:#FFCCBC;" d="M318.299,82.826c0.046,0.002,0.097-0.003,0.142-0.007c-0.112,0.022-0.237,0.027-0.357,0.027
							c-0.32-0.005-1.452-0.541-1.868-1.159c0.045-0.192,0.09-0.385,0.135-0.582C316.174,81.908,317.894,82.823,318.299,82.826z"/>
						<path style="fill:#FFCCBC;" d="M316.011,76.858c-0.382,0.314-0.77,0.504-1.137,0.48c0.279-0.065,0.572-0.229,0.86-0.455
							c0.447-0.354-0.144-2.274,0.509-2.801c0.87-0.712,1.967-1.131,3.043-1.212c-0.994,0.102-1.995,0.512-2.794,1.19
							C315.866,74.585,316.441,76.506,316.011,76.858z"/>
						<path style="fill:#FFCCBC;" d="M280.014,103.442c-1.365-1.404-3.291-3.68-3.863-5.578c-2.444-8.052-2.906-16.569-2.378-24.926
							c0.27-4.296,0.799-8.57,1.451-12.815c0.48-3.117,0.752-6.33,1.61-9.368c0.826-2.909,2.181-5.096,4.122-6.365
							c-0.084-0.164-0.17-0.327-0.242-0.497c-2.679,1.086-4.469,3.546-5.497,7.01c-0.898,3.041-1.198,6.257-1.701,9.376
							c-0.691,4.249-1.254,8.526-1.547,12.823c-0.573,8.361-0.122,16.88,2.378,24.926c0.595,1.896,2.642,6.705,4.053,8.105
							c2.558,2.539,7.332,1.179,10.276-0.252C285.58,106.072,282.173,105.663,280.014,103.442z"/>
						<path style="fill:#FFC0AC;" d="M323.483,75.807c-0.03-0.14-0.065-0.273-0.111-0.401c-0.622-1.945-2.346-2.717-4.086-2.536
							c-0.995,0.102-1.995,0.512-2.794,1.19c-0.625,0.525-0.051,2.446-0.481,2.798c-0.382,0.314-0.77,0.504-1.137,0.48
							c-0.287-0.019-0.552-0.172-0.786-0.493c-0.528-0.728-14.632-9.328-20.161-14.339c-5.512-4.995-10.655-10.948-13.009-18.095
							c-1.921,1.273-3.263,3.453-4.083,6.343c-0.858,3.038-1.13,6.25-1.61,9.368c-0.651,4.245-1.18,8.519-1.451,12.815
							c-0.528,8.357-0.066,16.874,2.378,24.926c0.572,1.898,2.497,4.174,3.863,5.578c2.158,2.221,5.407,2.644,8.504,2.453
							l0.158-0.014c0,0,13.803-3.8,20.335-11.256c5.7-6.506,5.463-6.706,7.063-13.495c-0.046,0.187,0.017,0.375,0.142,0.557
							c0.045-0.192,0.09-0.385,0.135-0.582c-0.178,0.803,1.542,1.719,1.947,1.722c0.046,0.002,0.097-0.003,0.142-0.007
							c0.006,0.005,0.012,0.005,0.017-0.002c1.619-0.073,2.671-1.538,3.843-2.825c0.773-0.846,1.255-1.996,1.281-3.156
							C323.591,76.493,323.559,76.148,323.483,75.807z"/>
					</g>
					<path style="fill:#37474F;" d="M291.043,66.497c0.846-0.452,1.998-0.081,2.324,0.867c0.334,0.97-0.114,2.086-1.169,2.327
						c-0.479,0.109-0.988,0.018-1.376-0.305c-0.095-0.079-0.214-0.216-0.288-0.314c-0.085-0.124-0.154-0.255-0.207-0.394
						c-0.048-0.119-0.001-0.042,0.14,0.233C289.929,68.077,290.142,66.978,291.043,66.497z"/>
					<path style="fill:#37474F;" d="M274.101,65.189c0.847-0.452,1.998-0.081,2.325,0.867c0.334,0.97-0.114,2.086-1.169,2.327
						c-0.479,0.109-0.988,0.018-1.376-0.305c-0.095-0.079-0.214-0.216-0.289-0.314c-0.085-0.124-0.154-0.256-0.206-0.394
						c-0.048-0.119-0.001-0.042,0.14,0.233C272.987,66.768,273.199,65.67,274.101,65.189z"/>
					<path style="fill:#B21F1D;" d="M287.221,55.821c2.511-1.375,6.373,0.172,8.631,1.644c0.853,0.556,1.029,1.97,0.092,1.501
						c-1.276-0.639-3.347-1.059-4.734-1.263c-1.277-0.188-2.58,0.091-3.835-0.198C286.547,57.314,286.546,56.191,287.221,55.821z"/>
					<path style="fill:#B21F1D;" d="M274.249,56.293c1.001-1.439,3.303-1.809,5.035-1.364c1.39,0.357,1.065,2.042-0.437,1.947
						c-1.333-0.084-2.565,0.264-3.884,0.297C274.464,57.186,273.937,56.741,274.249,56.293z"/>
					<g>
						<path style="fill:#FFC0AC;" d="M269.85,84.584c-0.122,0.417-0.231,0.85-0.192,1.274c0.069,0.751,0.602,1.36,1.233,1.692
							c0.632,0.333,1.357,0.435,2.069,0.53c1.137,0.152,3.193,0.573,4.075-0.264c0.721-0.684,0.728-1.68,0.49-2.516
							c-0.845-2.964-0.489-6.799-1.409-9.7c-0.099-0.312-0.211-0.635-0.446-0.848C274.29,73.497,270.246,83.227,269.85,84.584z"/>
						
							<radialGradient id="SVGID_00000087404680127083100890000010726448434423767696_" cx="291.6552" cy="78.1427" r="10.5437" gradientTransform="matrix(-0.5992 0.1821 0.1778 0.789 430.1891 -27.9367)" gradientUnits="userSpaceOnUse">
							<stop  offset="0" style="stop-color:#FF8A65"/>
							<stop  offset="1" style="stop-color:#FF8864;stop-opacity:0"/>
						</radialGradient>
						<path style="opacity:0.65;fill:url(#SVGID_00000087404680127083100890000010726448434423767696_);" d="M270.395,84.418
							c-0.097,0.41-0.182,0.835-0.137,1.258c0.081,0.748,0.568,1.37,1.135,1.722c0.567,0.352,1.211,0.48,1.842,0.599
							c1.009,0.191,2.838,0.681,3.595-0.118c0.619-0.653,0.6-1.641,0.367-2.479c-0.824-2.97-0.61-6.762-1.499-9.673
							c-0.096-0.313-0.204-0.637-0.416-0.857C274.03,73.576,270.71,83.086,270.395,84.418z"/>
						<path style="fill:#FF8A65;" d="M269.563,84.885c0.33-1.544,1.202-3.081,1.85-4.469c0.728-1.56,1.48-3.179,2.43-4.576
							c0.081-0.12,0.238,0.033,0.177,0.158c-1.149,2.37-2.446,4.59-3.421,7.076c-0.26,0.663-0.62,1.336-0.702,2.064
							c-0.108,0.962,0.418,1.702,1.132,2.128c0.969,0.578,2.239,0.551,3.29,0.869c0.088,0.027,0.048,0.169-0.037,0.153
							c-1.248-0.232-2.577,0.008-3.696-0.819C269.804,86.891,269.332,85.963,269.563,84.885z"/>
						<path style="fill:#FF8A65;" d="M274.362,87.007c0.652-0.247,1.439-0.155,2.092,0.048c0.1,0.031,0.111,0.187,0.027,0.247
							c-0.12,0.087-0.235,0.17-0.361,0.244c-0.076,0.044-0.157-0.066-0.093-0.139c0.036-0.041,0.076-0.077,0.113-0.115
							c-0.588-0.056-1.158-0.026-1.754-0.046C274.266,87.241,274.251,87.049,274.362,87.007z"/>
						<path style="fill:#FF8A65;" d="M276.921,87.644c0.173-0.357,0.421-0.565,0.497-0.996c0.077-0.439-0.032-0.791-0.161-1.195
							c-0.024-0.075,0.063-0.108,0.105-0.07c0.32,0.292,0.403,0.858,0.346,1.303c-0.054,0.417-0.275,1.034-0.674,1.131
							C276.949,87.838,276.876,87.736,276.921,87.644z"/>
					</g>
					<path style="fill:#FF8A65;" d="M317.66,78.939c0.273-0.041,0.504-0.006,0.712-0.221c0.261-0.27,0.215-0.66,0.193-1.008
						c-0.026-0.408-0.578-1.179-0.544-1.59c0.057-0.682,0.86-0.998,1.57-1.176c0.72-0.181,1.455,0.258,1.794,0.886
						c0.454,0.843,0.248,1.74-0.164,2.546c-0.05,0.097-0.215,0.081-0.219-0.038c-0.029-0.735,0.157-2.702-1.06-2.57
						c-0.964,0.104-0.445,1.738-0.452,2.337c-0.007,0.58-0.212,1.135-0.7,1.48c-0.434,0.306-1.065,0.401-1.388-0.082
						C317.245,79.268,317.391,78.979,317.66,78.939z"/>
					<path style="fill:#37474F;" d="M317.232,78.565c0.028-0.025,0.055-0.049,0.083-0.074c0.047-0.042,0.121-0.037,0.174-0.016
						c0.321,0.06,0.533-0.133,0.635-0.58c-0.073-0.216-0.189-0.403-0.349-0.56c-0.099-0.177-0.194-0.291-0.249-0.489
						c-0.108-0.386-0.037-0.803,0.147-1.154c0.401-0.766,1.263-1.166,2.101-1.175c0.85-0.009,1.545,0.367,1.923,1.133
						c0.315,0.638,0.437,1.743-0.042,2.323c-0.089,0.108-0.269,0.023-0.245-0.114c0.098-0.559,0.295-0.993,0-1.556
						c-0.218-0.416-0.576-0.708-1.01-0.886c-0.496-0.203-1.079-0.178-1.539,0.108c-0.693,0.432-0.643,0.918-0.263,1.507
						c0.664,1.029,0.147,2.368-1.208,2.238C317.018,79.233,317.008,78.766,317.232,78.565z"/>
					<path style="fill:#FF8A65;" d="M318.356,80.315c0.235-0.01,0.418,0.159,0.656,0.142c0.251-0.019,0.404-0.151,0.591-0.299
						c0.097-0.077,0.273-0.005,0.273,0.125c-0.001,0.403-0.376,0.695-0.743,0.771c-0.356,0.074-0.968-0.011-0.999-0.472
						C318.125,80.454,318.22,80.321,318.356,80.315z"/>
				</g>
				<g>
					<g>
						<path style="fill:#9DE6ED;" d="M342.631,171.593c0.781-4.361,1.434-8.745,1.899-13.156c0.767-7.27,1.211-14.759-0.503-22.046
							c-0.464-1.971-1.529-4.594-3.036-7.231c-2.237-3.914-6.222-9.067-11.216-10.536c-7.086-2.084-10.95,4.378-12.117,9.523
							c-2.22,9.788-3.141,19.818-4.058,29.821c-0.124,1.355-0.248,2.71-0.372,4.064
							C323.569,163.815,333.201,167.556,342.631,171.593z"/>
						<path style="fill:#FFC0AC;" d="M314.75,162.317c-0.561,5.513-1.122,11.025-1.683,16.538
							c-0.09,0.885-51.171-4.062-51.483-3.113c-0.9,2.731-1.219,3.883-1.556,5.082c-0.804,2.863,40.859,14.473,56.911,19.718
							c3.754,1.227,5.043,0.903,8.738-1.38c5.501-3.397,5.789-6.466,7.141-12.025c1.459-5.996,2.779-12.032,3.872-18.107
							C328.322,165.193,323.979,163.891,314.75,162.317z"/>
					</g>
					<path style="fill:#54BFCF;" d="M316.202,144.332c-1.404,6.196-1.936,12.499-1.938,18.845c0,0.321,0.495,0.394,0.505,0.063
						c0.182-6.331,0.957-12.594,1.98-18.84C316.807,144.044,316.279,143.993,316.202,144.332z"/>
					<path style="fill:#54BFCF;" d="M339.136,143.38c-1.355,8.215-1.647,16.817-1.593,25.134c0.002,0.273,0.463,0.269,0.479-0.003
						c0.507-8.352,1.354-16.696,1.795-25.046C339.841,143.026,339.209,142.941,339.136,143.38z"/>
					<path style="fill:#54BFCF;" d="M336.071,164.745c-4.159-2.974-9.907-4.281-14.908-4.862c-0.272-0.032-0.323,0.385-0.053,0.421
						c2.707,0.353,5.362,0.937,7.946,1.827c2.366,0.815,4.512,2.028,6.81,2.981C336.087,165.204,336.268,164.887,336.071,164.745z"
						/>
					<g>
						<path style="fill:#FFAB91;" d="M241.795,172.715c0.644-1.506,1.772-3.015,3.949-3.732c2.185-0.719,4.853-0.718,6.346,0.475
							c1.05,0.838-0.43,2.014-1.903,1.961c-0.85-0.031-1.841-0.266-2.681,0.036c-0.667,0.24-2.138,1.523-2.991,2.244
							C242.815,175.138,240.884,174.846,241.795,172.715z"/>
						<path style="fill:#FFAB91;" d="M244.354,174.814c0.644-1.506,1.772-3.016,3.949-3.732c2.185-0.719,4.853-0.718,6.347,0.475
							c1.05,0.838-0.43,2.014-1.903,1.961c-0.85-0.031-1.841-0.266-2.681,0.036c-0.667,0.24-2.138,1.523-2.991,2.244
							C245.374,177.237,243.443,176.945,244.354,174.814z"/>
						<path style="fill:#FFAB91;" d="M246.169,175.763c0.644-1.506,1.771-3.015,3.949-3.732c2.185-0.719,4.853-0.718,6.346,0.475
							c1.05,0.838-0.43,2.014-1.903,1.961c-0.849-0.031-1.841-0.266-2.681,0.036c-0.667,0.24-2.138,1.523-2.991,2.244
							C247.188,178.186,245.257,177.894,246.169,175.763z"/>
						<path style="fill:#FFAB91;" d="M260.636,175.725c-0.023,0.265-3.495,2.748-3.99,2.37c-2.02-1.542-4.342-2.597-5.99-0.17
							c-2.944,4.337,1.64,1.118,3.892,2.154c1.585,0.729,2.162,3.194,4.098,3.083c0.698-0.04,3.483-0.214,4.944,0.148
							C262.949,180.478,261.502,178.564,260.636,175.725z"/>
						<path style="fill:#FFC0AC;" d="M266.663,180.672c0.028-0.872,0.045-1.784,0.106-2.56c0.085-1.075-0.649-2.027-1.713-2.2
							c-3.271-0.531-2.974-1.639-5.028-4.517c-2.313-3.24-7.117-6.047-9.048-6.449c-2.68-0.559-5.917,2.261-9.678,3.503
							c-0.935,0.309-0.956,1.271-0.483,2.002c0.589,0.911,1.743,1.058,2.733,0.793c1.214-0.326,2.432-0.918,3.513-1.546
							c0.968-0.562,1.64-0.218,2.485,0.481c1.046,0.866,2.635,4.586,3.591,7.424c2.795,3.259,6.474,4.941,10.449,5.709
							c0.199-0.034,0.401-0.073,0.585-0.085C265.543,183.136,266.619,182.043,266.663,180.672z"/>
					</g>
				</g>
				<g>
					<g>
						<path style="fill:#B71C1C;" d="M285.058,92.866c-0.135,0.242-0.28,0.478-0.449,0.697c-0.507,0.666-1.174,1.211-1.916,1.583
							c-0.742,0.368-1.538,0.6-2.344,0.74c-0.471,0.079-0.954,0.109-1.432,0.117C279.828,93.749,282.87,92.372,285.058,92.866z"/>
						<path style="fill:#821C1C;" d="M277.414,91.628c-0.028-0.103-0.052-0.202-0.067-0.304c0.604-0.008,1.205-0.046,1.799-0.107
							c1.158-0.124,2.744,0.008,3.868-0.228c2.174-0.458,2.849-1.396,2.849-1.396s-0.011,0.906-0.198,1.721
							c-0.001,0.013-0.006,0.022-0.007,0.035l-0.004,0c-0.123,0.527-0.328,1.039-0.594,1.517c-2.188-0.494-5.229,0.884-6.141,3.137
							c-0.336,0.005-0.67,0.001-0.992-0.012c-0.224-0.002-0.349-2.322-0.305-2.979c0.017-0.25,0.02-0.43,0.016-0.496
							C277.609,92.258,277.498,91.942,277.414,91.628z"/>
					</g>
					<path style="fill:#FF8A65;" d="M276.983,96.754c0.043-0.127,0.223-0.145,0.269-0.008c0.393,1.173,0.817,2.027,2.141,2.347
						c1.277,0.309,2.589-0.187,3.826-0.459c0.104-0.023,0.197,0.132,0.084,0.185c-1.374,0.644-3.059,1.169-4.546,0.574
						C277.779,99.002,276.595,97.907,276.983,96.754z"/>
				</g>
			</g>
			<g>
				<path style="fill:#231F20;" d="M192.133,125.429c-1.08-2.904-3.833-2.881-6.516-2.638c-1.916,0.173-5.028,0.831-4.49,3.313
					c-0.288,1.984-0.598,4.204,0.535,5.947c1.01,1.553,2.786,1.915,4.527,1.784c1.536-0.116,3.506-0.398,4.587-1.632
					c1.253-1.432,1.482-4.629,1.302-6.416C192.15,125.69,192.184,125.568,192.133,125.429z M191.346,130.179
					c-0.865,2.516-2.503,2.654-4.845,2.88c-2.114,0.204-4.132-0.197-4.803-2.587c-0.335-1.193-0.313-2.641-0.318-3.983
					c0.062-0.017,0.118-0.066,0.126-0.146c0.274-2.697,3.629-2.456,5.458-2.554c1.887-0.101,3.427,0.103,4.352,1.986
					c0.088,0.179,0.264,0.233,0.433,0.206C191.791,127.351,191.78,128.917,191.346,130.179z"/>
				<path style="fill:#231F20;" d="M209.734,124.406c-1.211-3.257-4.298-3.231-7.307-2.959c-2.148,0.194-5.639,0.932-5.035,3.716
					c-0.323,2.226-0.671,4.715,0.6,6.669c1.133,1.742,3.125,2.148,5.076,2c1.722-0.13,3.932-0.446,5.144-1.83
					c1.405-1.606,1.662-5.191,1.46-7.195C209.754,124.698,209.792,124.562,209.734,124.406z M208.851,129.732
					c-0.97,2.822-2.807,2.976-5.433,3.23c-2.371,0.229-4.633-0.22-5.387-2.902c-0.376-1.339-0.351-2.962-0.357-4.467
					c0.07-0.019,0.133-0.074,0.142-0.164c0.307-3.024,4.07-2.755,6.12-2.864c2.116-0.113,3.843,0.115,4.881,2.227
					c0.099,0.201,0.296,0.261,0.486,0.231C209.351,126.56,209.338,128.317,208.851,129.732z"/>
				<path style="fill:#231F20;" d="M197.357,125.137c-1.884-0.181-3.708-0.387-5.528,0.259c-0.29,0.103-0.174,0.557,0.129,0.466
					c1.746-0.521,3.538-0.337,5.305-0.025C197.77,125.928,197.877,125.187,197.357,125.137z"/>
				<path style="fill:#231F20;" d="M232.314,129.524c-2.834-2.137-7.024-2.572-10.395-3.261c-3.902-0.798-8.179-1.729-12.174-1.643
					c-0.43,0.009-0.563,0.7-0.106,0.781c3.825,0.68,7.774,0.789,11.623,1.415c3.582,0.583,7.765,1.056,10.932,2.913
					C232.33,129.809,232.433,129.613,232.314,129.524z"/>
			</g>
		</g>
	</g>
</g>
<g id="DESIGNED_BY_FREEPIK">
	<g>
		<g>
			<path style="fill:#808080;" d="M179.552,471.502v-0.161c-0.218,0.249-0.433,0.452-0.644,0.608
				c-0.212,0.157-0.441,0.276-0.689,0.357c-0.247,0.082-0.517,0.122-0.81,0.122c-0.388,0-0.747-0.082-1.078-0.246
				c-0.33-0.164-0.616-0.399-0.857-0.704c-0.242-0.305-0.425-0.662-0.549-1.074c-0.124-0.412-0.187-0.857-0.187-1.335
				c0-1.013,0.247-1.804,0.742-2.369c0.495-0.565,1.146-0.848,1.953-0.848c0.467,0,0.861,0.081,1.181,0.24
				c0.321,0.16,0.633,0.408,0.938,0.739v-2.392c0-0.333,0.066-0.583,0.199-0.754c0.132-0.17,0.321-0.255,0.567-0.255
				c0.245,0,0.434,0.078,0.567,0.234c0.133,0.157,0.199,0.386,0.199,0.691v7.147c0,0.309-0.071,0.54-0.214,0.695
				c-0.142,0.154-0.326,0.231-0.552,0.231c-0.221,0-0.405-0.08-0.549-0.24C179.624,472.027,179.552,471.799,179.552,471.502z
				 M176.364,469.122c0,0.439,0.068,0.813,0.205,1.122c0.137,0.309,0.324,0.541,0.561,0.697c0.238,0.157,0.497,0.236,0.778,0.236
				c0.285,0,0.545-0.074,0.781-0.223c0.235-0.148,0.423-0.376,0.564-0.682c0.141-0.307,0.21-0.691,0.21-1.149
				c0-0.432-0.07-0.803-0.21-1.114c-0.14-0.31-0.33-0.547-0.57-0.712c-0.24-0.164-0.502-0.245-0.786-0.245
				c-0.297,0-0.562,0.084-0.795,0.252c-0.234,0.168-0.415,0.409-0.543,0.724C176.428,468.341,176.364,468.706,176.364,469.122z"/>
			<path style="fill:#808080;" d="M186.698,469.532h-3.169c0.004,0.367,0.078,0.692,0.223,0.973
				c0.144,0.281,0.336,0.493,0.576,0.635c0.24,0.143,0.504,0.213,0.793,0.213c0.194,0,0.371-0.022,0.531-0.067
				c0.16-0.046,0.315-0.117,0.466-0.214c0.15-0.096,0.289-0.201,0.415-0.312c0.126-0.111,0.29-0.262,0.493-0.452
				c0.083-0.071,0.202-0.107,0.357-0.107c0.166,0,0.3,0.046,0.403,0.137c0.103,0.092,0.155,0.219,0.155,0.386
				c0,0.146-0.058,0.317-0.172,0.513c-0.116,0.196-0.289,0.384-0.52,0.564c-0.232,0.18-0.522,0.329-0.873,0.448
				c-0.35,0.119-0.753,0.178-1.208,0.178c-1.04,0-1.85-0.297-2.428-0.891c-0.578-0.593-0.866-1.399-0.866-2.416
				c0-0.479,0.071-0.923,0.213-1.332c0.143-0.41,0.351-0.761,0.623-1.054c0.273-0.293,0.609-0.517,1.009-0.674
				c0.4-0.156,0.843-0.234,1.33-0.234c0.633,0,1.176,0.133,1.629,0.4c0.454,0.267,0.794,0.612,1.019,1.035
				c0.225,0.424,0.339,0.856,0.339,1.294c0,0.408-0.117,0.672-0.35,0.793C187.45,469.471,187.122,469.532,186.698,469.532z
				 M183.528,468.612h2.939c-0.039-0.554-0.19-0.969-0.448-1.244c-0.259-0.275-0.6-0.413-1.024-0.413
				c-0.404,0-0.735,0.139-0.994,0.418C183.741,467.652,183.584,468.065,183.528,468.612z"/>
			<path style="fill:#808080;" d="M194.082,470.308c0,0.447-0.108,0.831-0.327,1.149c-0.217,0.319-0.539,0.56-0.965,0.724
				c-0.425,0.164-0.943,0.246-1.552,0.246c-0.582,0-1.08-0.089-1.496-0.267c-0.415-0.178-0.722-0.401-0.92-0.667
				c-0.198-0.268-0.297-0.535-0.297-0.805c0-0.178,0.063-0.33,0.19-0.457c0.126-0.126,0.287-0.19,0.481-0.19
				c0.17,0,0.3,0.042,0.391,0.125c0.091,0.083,0.178,0.2,0.261,0.35c0.166,0.29,0.366,0.504,0.597,0.648
				c0.231,0.142,0.547,0.214,0.947,0.214c0.324,0,0.59-0.073,0.798-0.217c0.208-0.145,0.311-0.31,0.311-0.496
				c0-0.285-0.107-0.492-0.324-0.622c-0.216-0.131-0.571-0.256-1.066-0.375c-0.558-0.138-1.012-0.284-1.362-0.436
				c-0.35-0.151-0.63-0.353-0.84-0.602c-0.21-0.25-0.315-0.557-0.315-0.92c0-0.324,0.097-0.631,0.291-0.92
				c0.194-0.288,0.48-0.519,0.859-0.691c0.377-0.173,0.833-0.259,1.367-0.259c0.419,0,0.797,0.043,1.131,0.131
				c0.335,0.086,0.614,0.204,0.837,0.35c0.224,0.146,0.394,0.308,0.51,0.486c0.117,0.178,0.175,0.352,0.175,0.523
				c0,0.185-0.062,0.338-0.186,0.457c-0.125,0.118-0.301,0.178-0.532,0.178c-0.166,0-0.308-0.048-0.424-0.143
				c-0.117-0.095-0.25-0.237-0.401-0.427c-0.123-0.158-0.266-0.285-0.433-0.38c-0.166-0.095-0.392-0.142-0.677-0.142
				c-0.293,0-0.536,0.062-0.73,0.187c-0.194,0.124-0.291,0.279-0.291,0.465c0,0.171,0.071,0.31,0.213,0.419
				c0.143,0.109,0.334,0.2,0.576,0.27c0.242,0.071,0.573,0.158,0.997,0.261c0.502,0.123,0.912,0.27,1.231,0.439
				c0.318,0.17,0.56,0.371,0.725,0.603C194,469.748,194.082,470.012,194.082,470.308z"/>
			<path style="fill:#808080;" d="M195.738,465.086c-0.226,0-0.418-0.07-0.579-0.208c-0.16-0.138-0.24-0.334-0.24-0.588
				c0-0.23,0.082-0.418,0.246-0.567c0.164-0.149,0.355-0.223,0.573-0.223c0.21,0,0.396,0.067,0.558,0.202
				c0.162,0.135,0.244,0.33,0.244,0.588c0,0.25-0.08,0.444-0.238,0.585C196.143,465.015,195.955,465.086,195.738,465.086z
				 M196.539,466.759v4.683c0,0.325-0.077,0.571-0.232,0.737c-0.155,0.166-0.35,0.249-0.588,0.249c-0.238,0-0.431-0.085-0.579-0.255
				c-0.149-0.17-0.222-0.414-0.222-0.73v-4.636c0-0.32,0.074-0.562,0.222-0.724c0.148-0.162,0.341-0.243,0.579-0.243
				c0.238,0,0.433,0.081,0.588,0.243C196.462,466.245,196.539,466.47,196.539,466.759z"/>
			<path style="fill:#808080;" d="M203.639,467.026v4.707c0,0.538-0.058,1.001-0.173,1.39c-0.114,0.387-0.298,0.708-0.552,0.961
				c-0.253,0.253-0.585,0.441-0.994,0.563c-0.41,0.123-0.919,0.184-1.529,0.184c-0.558,0-1.056-0.078-1.496-0.234
				c-0.439-0.157-0.777-0.358-1.015-0.605c-0.237-0.247-0.357-0.502-0.357-0.763c0-0.198,0.068-0.359,0.202-0.483
				c0.134-0.125,0.297-0.187,0.487-0.187c0.237,0,0.445,0.105,0.623,0.314c0.087,0.107,0.177,0.215,0.27,0.324
				c0.093,0.109,0.197,0.202,0.309,0.28c0.113,0.076,0.249,0.134,0.406,0.172c0.158,0.037,0.341,0.056,0.546,0.056
				c0.42,0,0.745-0.058,0.977-0.175c0.232-0.117,0.394-0.28,0.487-0.49c0.093-0.209,0.147-0.433,0.163-0.673
				c0.016-0.24,0.027-0.624,0.035-1.155c-0.25,0.349-0.537,0.615-0.864,0.796c-0.326,0.182-0.715,0.273-1.166,0.273
				c-0.542,0-1.016-0.138-1.422-0.416c-0.405-0.277-0.717-0.665-0.934-1.163c-0.218-0.499-0.326-1.074-0.326-1.727
				c0-0.487,0.066-0.927,0.198-1.318c0.133-0.392,0.322-0.723,0.567-0.992c0.245-0.269,0.528-0.472,0.849-0.608
				c0.321-0.136,0.673-0.204,1.057-0.204c0.459,0,0.857,0.089,1.193,0.264c0.336,0.177,0.649,0.453,0.938,0.829v-0.22
				c0-0.281,0.069-0.498,0.208-0.653c0.139-0.154,0.317-0.231,0.535-0.231c0.313,0,0.52,0.103,0.623,0.306
				C203.587,466.349,203.639,466.643,203.639,467.026z M198.943,469.08c0,0.657,0.143,1.154,0.43,1.49
				c0.287,0.337,0.658,0.505,1.113,0.505c0.269,0,0.523-0.073,0.762-0.217c0.24-0.145,0.435-0.363,0.585-0.653
				c0.15-0.291,0.226-0.644,0.226-1.06c0-0.66-0.145-1.176-0.436-1.543c-0.291-0.368-0.674-0.552-1.149-0.552
				c-0.463,0-0.834,0.176-1.113,0.529C199.082,467.931,198.943,468.432,198.943,469.08z"/>
			<path style="fill:#808080;" d="M206.214,466.735v0.196c0.285-0.376,0.596-0.652,0.935-0.828c0.338-0.176,0.727-0.264,1.166-0.264
				c0.427,0,0.809,0.093,1.146,0.279c0.336,0.186,0.588,0.449,0.753,0.789c0.108,0.198,0.176,0.413,0.208,0.642
				c0.032,0.23,0.048,0.522,0.048,0.879v3.015c0,0.325-0.075,0.571-0.223,0.737c-0.148,0.166-0.341,0.249-0.579,0.249
				c-0.242,0-0.437-0.085-0.588-0.255c-0.151-0.17-0.225-0.414-0.225-0.73v-2.701c0-0.534-0.074-0.943-0.223-1.226
				c-0.149-0.283-0.444-0.425-0.888-0.425c-0.288,0-0.552,0.086-0.789,0.258c-0.237,0.173-0.412,0.41-0.522,0.71
				c-0.079,0.242-0.119,0.692-0.119,1.353v2.03c0,0.328-0.077,0.576-0.228,0.74c-0.152,0.164-0.349,0.246-0.59,0.246
				c-0.234,0-0.426-0.085-0.576-0.255c-0.15-0.17-0.225-0.414-0.225-0.73v-4.683c0-0.309,0.067-0.54,0.202-0.692
				c0.135-0.152,0.319-0.228,0.552-0.228c0.143,0,0.272,0.034,0.387,0.101c0.114,0.068,0.207,0.169,0.276,0.302
				C206.179,466.377,206.214,466.542,206.214,466.735z"/>
			<path style="fill:#808080;" d="M216.073,469.532h-3.17c0.004,0.367,0.078,0.692,0.223,0.973c0.144,0.281,0.336,0.493,0.576,0.635
				c0.239,0.143,0.503,0.213,0.792,0.213c0.194,0,0.371-0.022,0.532-0.067c0.16-0.046,0.315-0.117,0.466-0.214
				c0.15-0.096,0.288-0.201,0.416-0.312c0.126-0.111,0.29-0.262,0.492-0.452c0.083-0.071,0.202-0.107,0.356-0.107
				c0.166,0,0.301,0.046,0.404,0.137c0.103,0.092,0.154,0.219,0.154,0.386c0,0.146-0.057,0.317-0.172,0.513
				c-0.115,0.196-0.288,0.384-0.52,0.564c-0.232,0.18-0.522,0.329-0.872,0.448c-0.35,0.119-0.753,0.178-1.208,0.178
				c-1.041,0-1.85-0.297-2.428-0.891c-0.577-0.593-0.866-1.399-0.866-2.416c0-0.479,0.071-0.923,0.214-1.332
				c0.143-0.41,0.351-0.761,0.624-1.054c0.273-0.293,0.609-0.517,1.009-0.674c0.399-0.156,0.843-0.234,1.33-0.234
				c0.633,0,1.176,0.133,1.629,0.4c0.453,0.267,0.793,0.612,1.019,1.035c0.225,0.424,0.338,0.856,0.338,1.294
				c0,0.408-0.117,0.672-0.35,0.793C216.825,469.471,216.497,469.532,216.073,469.532z M212.903,468.612h2.938
				c-0.039-0.554-0.189-0.969-0.448-1.244c-0.259-0.275-0.6-0.413-1.024-0.413c-0.404,0-0.736,0.139-0.995,0.418
				C213.115,467.652,212.959,468.065,212.903,468.612z"/>
			<path style="fill:#808080;" d="M222.679,471.502v-0.161c-0.218,0.249-0.432,0.452-0.644,0.608
				c-0.212,0.157-0.441,0.276-0.688,0.357c-0.247,0.082-0.517,0.122-0.81,0.122c-0.389,0-0.747-0.082-1.078-0.246
				c-0.331-0.164-0.616-0.399-0.858-0.704c-0.242-0.305-0.424-0.662-0.549-1.074c-0.125-0.412-0.187-0.857-0.187-1.335
				c0-1.013,0.247-1.804,0.742-2.369c0.495-0.565,1.146-0.848,1.953-0.848c0.467,0,0.861,0.081,1.181,0.24
				c0.32,0.16,0.633,0.408,0.938,0.739v-2.392c0-0.333,0.066-0.583,0.199-0.754c0.132-0.17,0.322-0.255,0.567-0.255
				c0.245,0,0.434,0.078,0.567,0.234c0.133,0.157,0.199,0.386,0.199,0.691v7.147c0,0.309-0.071,0.54-0.214,0.695
				c-0.143,0.154-0.326,0.231-0.552,0.231c-0.222,0-0.405-0.08-0.549-0.24C222.751,472.027,222.679,471.799,222.679,471.502z
				 M219.492,469.122c0,0.439,0.068,0.813,0.204,1.122c0.137,0.309,0.324,0.541,0.562,0.697c0.237,0.157,0.496,0.236,0.777,0.236
				c0.285,0,0.546-0.074,0.781-0.223c0.236-0.148,0.424-0.376,0.564-0.682c0.141-0.307,0.211-0.691,0.211-1.149
				c0-0.432-0.07-0.803-0.211-1.114c-0.14-0.31-0.33-0.547-0.57-0.712c-0.24-0.164-0.502-0.245-0.787-0.245
				c-0.296,0-0.562,0.084-0.795,0.252c-0.233,0.168-0.414,0.409-0.543,0.724C219.556,468.341,219.492,468.706,219.492,469.122z"/>
			<path style="fill:#808080;" d="M229.303,464.355v2.475c0.304-0.316,0.615-0.559,0.932-0.727c0.316-0.168,0.709-0.252,1.175-0.252
				c0.538,0,1.01,0.128,1.416,0.382c0.405,0.256,0.72,0.626,0.944,1.111c0.223,0.484,0.336,1.06,0.336,1.725
				c0,0.491-0.063,0.94-0.187,1.35c-0.125,0.409-0.306,0.765-0.543,1.065c-0.238,0.301-0.525,0.534-0.864,0.698
				c-0.339,0.164-0.712,0.246-1.119,0.246c-0.25,0-0.484-0.029-0.703-0.089c-0.22-0.059-0.407-0.137-0.561-0.234
				c-0.154-0.096-0.286-0.197-0.395-0.3c-0.109-0.102-0.253-0.258-0.431-0.463v0.161c0,0.305-0.073,0.535-0.22,0.692
				c-0.146,0.156-0.332,0.234-0.558,0.234c-0.23,0-0.413-0.078-0.549-0.234c-0.137-0.157-0.205-0.388-0.205-0.692v-7.076
				c0-0.328,0.066-0.577,0.198-0.745c0.133-0.168,0.318-0.252,0.555-0.252c0.25,0,0.441,0.08,0.576,0.24
				C229.235,463.83,229.303,464.058,229.303,464.355z M229.38,469.169c0,0.645,0.147,1.14,0.442,1.486
				c0.295,0.347,0.682,0.521,1.161,0.521c0.407,0,0.759-0.177,1.053-0.532c0.295-0.355,0.442-0.862,0.442-1.523
				c0-0.427-0.061-0.796-0.184-1.104c-0.123-0.309-0.297-0.547-0.522-0.715c-0.226-0.168-0.489-0.252-0.79-0.252
				c-0.309,0-0.584,0.084-0.825,0.252c-0.242,0.168-0.431,0.411-0.57,0.73C229.449,468.35,229.38,468.73,229.38,469.169z"/>
			<path style="fill:#808080;" d="M236.207,472.63l0.148-0.363l-1.995-5.022c-0.122-0.288-0.184-0.499-0.184-0.629
				c0-0.139,0.036-0.267,0.107-0.385c0.071-0.119,0.169-0.214,0.294-0.285c0.125-0.072,0.255-0.107,0.389-0.107
				c0.233,0,0.409,0.074,0.529,0.223c0.119,0.148,0.223,0.361,0.314,0.638l1.372,3.989l1.3-3.71c0.103-0.3,0.196-0.536,0.279-0.706
				c0.083-0.17,0.171-0.285,0.264-0.344c0.093-0.06,0.225-0.09,0.395-0.09c0.123,0,0.24,0.032,0.353,0.098
				c0.113,0.065,0.2,0.153,0.261,0.264c0.061,0.111,0.092,0.227,0.092,0.35c-0.016,0.075-0.041,0.182-0.077,0.321
				c-0.036,0.138-0.079,0.28-0.13,0.421l-2.113,5.533c-0.183,0.486-0.361,0.868-0.535,1.145c-0.174,0.277-0.404,0.491-0.692,0.638
				c-0.287,0.149-0.674,0.223-1.161,0.223c-0.475,0-0.831-0.051-1.068-0.154c-0.238-0.104-0.356-0.292-0.356-0.564
				c0-0.186,0.056-0.33,0.169-0.43c0.112-0.101,0.28-0.152,0.501-0.152c0.087,0,0.173,0.012,0.256,0.037
				c0.103,0.023,0.192,0.035,0.267,0.035c0.186,0,0.333-0.027,0.44-0.084c0.106-0.055,0.202-0.151,0.288-0.288
				C235.998,473.096,236.096,472.895,236.207,472.63z"/>
		</g>
		<g>
			<path style="fill:#808080;" d="M259.683,465.979h0.386v-0.486c0-0.509,0.062-0.911,0.192-1.211
				c0.128-0.299,0.347-0.516,0.654-0.653c0.307-0.135,0.727-0.204,1.26-0.204c0.95,0,1.42,0.229,1.42,0.697
				c0,0.149-0.049,0.278-0.15,0.384c-0.096,0.106-0.214,0.16-0.349,0.16c-0.062,0-0.174-0.012-0.329-0.037
				c-0.148-0.021-0.283-0.035-0.389-0.035c-0.292,0-0.479,0.088-0.566,0.259c-0.079,0.172-0.122,0.418-0.122,0.74v0.386h0.396
				c0.62,0,0.926,0.186,0.926,0.56c0,0.262-0.079,0.431-0.245,0.503c-0.163,0.071-0.39,0.107-0.68,0.107h-0.396v4.294
				c0,0.319-0.075,0.563-0.231,0.73c-0.151,0.17-0.346,0.254-0.589,0.254c-0.229,0-0.419-0.084-0.574-0.254
				c-0.153-0.167-0.228-0.411-0.228-0.73v-4.294h-0.446c-0.243,0-0.427-0.052-0.558-0.164c-0.131-0.107-0.197-0.25-0.197-0.423
				C258.869,466.172,259.14,465.979,259.683,465.979"/>
			<path style="fill:#808080;" d="M264.989,470.088v1.355c0,0.327-0.083,0.574-0.234,0.737c-0.154,0.166-0.349,0.247-0.586,0.247
				c-0.239,0-0.43-0.082-0.579-0.25c-0.148-0.165-0.225-0.41-0.225-0.734v-4.514c0-0.729,0.262-1.093,0.788-1.093
				c0.271,0,0.464,0.084,0.583,0.255c0.119,0.171,0.184,0.421,0.198,0.755c0.192-0.334,0.39-0.584,0.593-0.755
				c0.208-0.171,0.477-0.255,0.819-0.255c0.343,0,0.67,0.084,0.991,0.255c0.322,0.171,0.482,0.398,0.482,0.678
				c0,0.197-0.069,0.362-0.204,0.488c-0.137,0.131-0.284,0.195-0.441,0.195c-0.062,0-0.207-0.039-0.433-0.112
				c-0.228-0.071-0.43-0.108-0.602-0.108c-0.237,0-0.433,0.064-0.582,0.186c-0.151,0.128-0.269,0.311-0.353,0.554
				c-0.081,0.247-0.137,0.541-0.17,0.878C265.003,469.188,264.989,469.602,264.989,470.088"/>
			<path style="fill:#808080;" d="M272.44,469.53h-3.171c0.005,0.367,0.077,0.694,0.222,0.974c0.147,0.279,0.337,0.491,0.578,0.635
				c0.24,0.142,0.502,0.212,0.793,0.212c0.194,0,0.371-0.021,0.531-0.07c0.159-0.043,0.316-0.116,0.466-0.213
				c0.151-0.095,0.288-0.199,0.415-0.313c0.126-0.109,0.292-0.26,0.494-0.449c0.084-0.071,0.203-0.109,0.355-0.109
				c0.168,0,0.301,0.046,0.406,0.139c0.104,0.092,0.152,0.219,0.152,0.386c0,0.147-0.055,0.317-0.167,0.512
				c-0.117,0.198-0.289,0.385-0.522,0.566c-0.234,0.178-0.524,0.329-0.873,0.446c-0.35,0.119-0.754,0.179-1.207,0.179
				c-1.044,0-1.852-0.296-2.429-0.889c-0.578-0.595-0.87-1.401-0.87-2.418c0-0.479,0.073-0.924,0.217-1.334
				c0.14-0.411,0.349-0.76,0.624-1.055c0.272-0.294,0.606-0.518,1.008-0.674c0.399-0.156,0.842-0.234,1.33-0.234
				c0.632,0,1.175,0.134,1.629,0.404c0.452,0.264,0.796,0.61,1.018,1.034c0.226,0.426,0.339,0.855,0.339,1.296
				c0,0.405-0.118,0.669-0.351,0.791C273.191,469.47,272.863,469.53,272.44,469.53 M269.268,468.609h2.938
				c-0.039-0.553-0.186-0.969-0.446-1.242c-0.261-0.276-0.599-0.413-1.025-0.413c-0.403,0-0.735,0.137-0.995,0.418
				C269.481,467.651,269.323,468.063,269.268,468.609"/>
			<path style="fill:#808080;" d="M279.182,469.53h-3.171c0.004,0.367,0.078,0.694,0.221,0.974c0.145,0.279,0.337,0.491,0.576,0.635
				c0.239,0.142,0.504,0.212,0.795,0.212c0.192,0,0.37-0.021,0.528-0.07c0.162-0.043,0.316-0.116,0.469-0.213
				c0.151-0.095,0.287-0.199,0.415-0.313c0.125-0.109,0.29-0.26,0.493-0.449c0.084-0.071,0.204-0.109,0.355-0.109
				c0.168,0,0.302,0.046,0.407,0.139c0.103,0.092,0.15,0.219,0.15,0.386c0,0.147-0.054,0.317-0.171,0.512
				c-0.11,0.198-0.284,0.385-0.519,0.566c-0.231,0.178-0.525,0.329-0.872,0.446c-0.349,0.119-0.755,0.179-1.209,0.179
				c-1.042,0-1.849-0.296-2.429-0.889c-0.577-0.595-0.868-1.401-0.868-2.418c0-0.479,0.073-0.924,0.217-1.334
				c0.142-0.411,0.349-0.76,0.623-1.055c0.272-0.294,0.608-0.518,1.009-0.674c0.398-0.156,0.844-0.234,1.331-0.234
				c0.63,0,1.174,0.134,1.633,0.404c0.45,0.264,0.791,0.61,1.013,1.034c0.225,0.426,0.341,0.855,0.341,1.296
				c0,0.405-0.12,0.669-0.351,0.791C279.932,469.47,279.604,469.53,279.182,469.53 M276.011,468.609h2.938
				c-0.04-0.553-0.19-0.969-0.447-1.242c-0.263-0.276-0.601-0.413-1.027-0.413c-0.403,0-0.735,0.137-0.996,0.418
				C276.222,467.651,276.063,468.063,276.011,468.609"/>
			<path style="fill:#808080;" d="M282.732,466.748v0.194c0.304-0.375,0.621-0.651,0.953-0.828c0.324-0.178,0.699-0.267,1.114-0.267
				c0.497,0,0.96,0.13,1.379,0.386c0.419,0.259,0.749,0.635,0.993,1.129c0.244,0.497,0.366,1.081,0.366,1.758
				c0,0.497-0.07,0.957-0.21,1.376c-0.14,0.418-0.336,0.767-0.58,1.05c-0.246,0.281-0.535,0.501-0.868,0.654
				c-0.339,0.151-0.695,0.227-1.08,0.227c-0.461,0-0.853-0.093-1.166-0.28c-0.314-0.182-0.614-0.458-0.901-0.816v2.433
				c0,0.71-0.26,1.069-0.778,1.069c-0.306,0-0.505-0.092-0.607-0.275c-0.095-0.187-0.146-0.452-0.146-0.807v-6.996
				c0-0.309,0.067-0.537,0.2-0.692c0.134-0.149,0.32-0.228,0.553-0.228c0.231,0,0.416,0.078,0.56,0.234
				C282.661,466.228,282.732,466.451,282.732,466.748 M285.909,469.102c0-0.428-0.067-0.796-0.197-1.102
				c-0.131-0.308-0.312-0.542-0.541-0.705c-0.229-0.164-0.489-0.248-0.77-0.248c-0.446,0-0.824,0.178-1.13,0.527
				c-0.308,0.354-0.462,0.872-0.462,1.558c0,0.641,0.153,1.146,0.46,1.504c0.305,0.358,0.679,0.536,1.133,0.536
				c0.268,0,0.519-0.079,0.748-0.233c0.232-0.158,0.416-0.392,0.552-0.704C285.839,469.923,285.909,469.545,285.909,469.102"/>
			<path style="fill:#808080;" d="M289.169,465.081c-0.226,0-0.418-0.071-0.577-0.209c-0.162-0.139-0.242-0.333-0.242-0.585
				c0-0.23,0.082-0.419,0.248-0.569c0.164-0.147,0.354-0.222,0.571-0.222c0.212,0,0.397,0.067,0.559,0.2
				c0.162,0.137,0.244,0.334,0.244,0.591c0,0.25-0.079,0.444-0.236,0.585C289.577,465.01,289.389,465.081,289.169,465.081
				 M289.972,466.755v4.689c0,0.322-0.077,0.568-0.231,0.732c-0.156,0.168-0.35,0.25-0.588,0.25c-0.238,0-0.428-0.084-0.58-0.254
				c-0.146-0.173-0.222-0.416-0.222-0.729v-4.642c0-0.319,0.076-0.559,0.222-0.721c0.152-0.165,0.342-0.245,0.58-0.245
				c0.238,0,0.432,0.079,0.588,0.245C289.894,466.243,289.972,466.469,289.972,466.755"/>
			<path style="fill:#808080;" d="M295.196,471.687l-1.428-2.354l-0.88,0.83v1.291c0,0.312-0.083,0.551-0.248,0.718
				c-0.16,0.17-0.354,0.254-0.566,0.254c-0.249,0-0.447-0.082-0.588-0.25c-0.142-0.165-0.215-0.41-0.215-0.734v-6.915
				c0-0.358,0.071-0.632,0.207-0.821c0.139-0.19,0.341-0.283,0.596-0.283c0.25,0,0.445,0.086,0.593,0.257
				c0.146,0.169,0.221,0.421,0.221,0.751v3.933l1.822-1.914c0.227-0.235,0.396-0.4,0.517-0.486c0.118-0.087,0.262-0.13,0.431-0.13
				c0.204,0,0.371,0.065,0.51,0.193c0.132,0.129,0.2,0.291,0.2,0.483c0,0.237-0.221,0.556-0.659,0.951l-0.861,0.789l1.662,2.614
				c0.121,0.196,0.212,0.34,0.265,0.441c0.052,0.1,0.081,0.2,0.081,0.289c0,0.258-0.071,0.459-0.213,0.61
				c-0.14,0.148-0.327,0.221-0.554,0.221c-0.198,0-0.352-0.051-0.458-0.16C295.526,472.159,295.377,471.965,295.196,471.687"/>
			<path style="fill:#808080;" d="M298.718,472.427c-0.245,0-0.455-0.079-0.634-0.238c-0.178-0.156-0.268-0.378-0.268-0.665
				c0-0.241,0.086-0.449,0.256-0.622c0.172-0.174,0.38-0.262,0.63-0.262c0.248,0,0.46,0.087,0.639,0.258
				c0.174,0.172,0.264,0.383,0.264,0.626c0,0.283-0.089,0.505-0.264,0.662C299.163,472.348,298.955,472.427,298.718,472.427"/>
			<path style="fill:#808080;" d="M306.78,470.421c0,0.2-0.06,0.418-0.182,0.646c-0.12,0.231-0.305,0.449-0.553,0.656
				c-0.247,0.207-0.557,0.377-0.935,0.502c-0.375,0.126-0.8,0.192-1.269,0.192c-1.004,0-1.786-0.294-2.349-0.876
				c-0.56-0.585-0.841-1.368-0.841-2.35c0-0.667,0.128-1.254,0.387-1.765c0.254-0.509,0.628-0.905,1.113-1.184
				c0.487-0.28,1.072-0.419,1.746-0.419c0.421,0,0.805,0.061,1.158,0.184c0.35,0.122,0.645,0.282,0.891,0.474
				c0.242,0.197,0.428,0.402,0.556,0.62c0.129,0.22,0.192,0.425,0.192,0.617c0,0.192-0.071,0.357-0.214,0.492
				c-0.147,0.134-0.322,0.203-0.524,0.203c-0.137,0-0.249-0.035-0.338-0.104c-0.09-0.07-0.19-0.181-0.299-0.339
				c-0.198-0.299-0.404-0.526-0.622-0.674c-0.214-0.152-0.488-0.226-0.821-0.226c-0.476,0-0.865,0.186-1.159,0.561
				c-0.292,0.372-0.44,0.888-0.44,1.534c0,0.305,0.039,0.587,0.114,0.842c0.073,0.255,0.182,0.472,0.325,0.653
				c0.144,0.179,0.315,0.315,0.516,0.409c0.203,0.096,0.425,0.141,0.665,0.141c0.326,0,0.604-0.075,0.836-0.225
				c0.235-0.151,0.439-0.38,0.616-0.689c0.099-0.182,0.204-0.324,0.318-0.427c0.114-0.102,0.256-0.156,0.422-0.156
				c0.198,0,0.363,0.077,0.491,0.227C306.714,470.09,306.78,470.252,306.78,470.421"/>
			<path style="fill:#808080;" d="M313.774,469.133c0,0.481-0.076,0.928-0.222,1.337c-0.154,0.408-0.37,0.758-0.656,1.049
				c-0.284,0.293-0.626,0.518-1.02,0.675c-0.4,0.154-0.844,0.234-1.337,0.234c-0.491,0-0.933-0.08-1.326-0.239
				c-0.389-0.156-0.732-0.384-1.016-0.676c-0.288-0.298-0.505-0.646-0.657-1.048c-0.143-0.402-0.219-0.846-0.219-1.332
				c0-0.491,0.077-0.941,0.224-1.349c0.151-0.409,0.368-0.758,0.649-1.046c0.282-0.289,0.621-0.511,1.019-0.669
				c0.402-0.156,0.844-0.234,1.326-0.234c0.49,0,0.936,0.078,1.337,0.239c0.398,0.157,0.739,0.384,1.027,0.674
				c0.286,0.297,0.502,0.643,0.65,1.045C313.699,468.201,313.774,468.644,313.774,469.133 M312.147,469.133
				c0-0.662-0.146-1.176-0.436-1.543c-0.289-0.372-0.681-0.555-1.171-0.555c-0.317,0-0.597,0.082-0.839,0.246
				c-0.242,0.164-0.425,0.406-0.556,0.728c-0.131,0.321-0.197,0.696-0.197,1.124c0,0.424,0.064,0.792,0.194,1.108
				c0.13,0.319,0.314,0.561,0.553,0.729c0.241,0.167,0.522,0.253,0.845,0.253c0.49,0,0.882-0.185,1.171-0.557
				C312,470.296,312.147,469.784,312.147,469.133"/>
			<path style="fill:#808080;" d="M319.956,469.252v2.154c0,0.342-0.075,0.595-0.231,0.767c-0.156,0.17-0.357,0.255-0.611,0.255
				c-0.245,0-0.446-0.085-0.595-0.255c-0.154-0.173-0.232-0.425-0.232-0.767v-2.582c0-0.408-0.013-0.726-0.04-0.953
				c-0.029-0.221-0.105-0.41-0.226-0.552c-0.123-0.147-0.318-0.22-0.582-0.22c-0.532,0-0.879,0.181-1.048,0.551
				c-0.167,0.36-0.254,0.883-0.254,1.567v2.189c0,0.336-0.076,0.592-0.226,0.765c-0.156,0.171-0.355,0.258-0.603,0.258
				c-0.247,0-0.448-0.087-0.604-0.258c-0.157-0.173-0.235-0.428-0.235-0.765v-4.637c0-0.306,0.07-0.538,0.209-0.695
				c0.143-0.16,0.329-0.239,0.556-0.239c0.223,0,0.407,0.077,0.557,0.222c0.148,0.149,0.222,0.354,0.222,0.615v0.153
				c0.283-0.334,0.584-0.582,0.903-0.738c0.323-0.162,0.676-0.241,1.07-0.241c0.407,0,0.757,0.082,1.049,0.244
				c0.293,0.163,0.533,0.409,0.725,0.735c0.275-0.33,0.568-0.577,0.881-0.738c0.313-0.161,0.658-0.241,1.039-0.241
				c0.441,0,0.826,0.089,1.146,0.262c0.319,0.174,0.558,0.425,0.717,0.747c0.138,0.295,0.206,0.756,0.206,1.385v3.164
				c0,0.342-0.076,0.595-0.229,0.767c-0.154,0.17-0.359,0.255-0.612,0.255c-0.247,0-0.446-0.087-0.603-0.258
				c-0.156-0.173-0.235-0.428-0.235-0.765v-2.726c0-0.349-0.015-0.627-0.043-0.836c-0.029-0.211-0.11-0.388-0.239-0.529
				c-0.132-0.142-0.331-0.215-0.596-0.215c-0.214,0-0.416,0.066-0.609,0.192c-0.192,0.124-0.342,0.298-0.45,0.508
				C320.018,468.074,319.956,468.558,319.956,469.252"/>
		</g>
		<g>
			<path style="fill:#808080;" d="M244.516,468.74c-0.001-0.003-0.001-0.006-0.001-0.011
				C244.515,468.734,244.515,468.737,244.516,468.74z"/>
			<path style="fill:#808080;" d="M244.598,469.259c0.001,0,0.001,0,0.001,0c-0.031-0.148-0.055-0.294-0.074-0.439
				C244.544,468.966,244.568,469.113,244.598,469.259z"/>
			<path style="fill:#808080;" d="M245.134,470.763c-0.004-0.006-0.007-0.013-0.011-0.021
				C245.127,470.749,245.13,470.756,245.134,470.763z"/>
			<path style="fill:#808080;" d="M245.083,470.662c-0.014-0.027-0.027-0.056-0.041-0.084
				C245.055,470.608,245.069,470.635,245.083,470.662z"/>
			<path style="fill:#808080;" d="M244.748,469.838c0.079,0.25,0.175,0.493,0.286,0.724c-0.113-0.236-0.206-0.479-0.283-0.724
				C244.75,469.838,244.749,469.838,244.748,469.838z"/>
			<path style="fill:#808080;" d="M250.789,462.53c0.313,0,0.544,0.025,0.809,0.07l0.075-0.477c0,0-0.732-0.225-1.694-0.146
				l-0.076-0.259c0.299-0.063,0.524-0.329,0.524-0.646c0-0.364-0.296-0.659-0.661-0.659c-0.364,0-0.66,0.295-0.66,0.659
				c0,0.317,0.224,0.583,0.522,0.646l0.084,0.289c-1.021,0.14-1.834,0.539-1.834,0.539l0.144,0.441
				c0.618-0.206,1.154-0.331,1.64-0.383C250.139,462.552,250.497,462.53,250.789,462.53z"/>
			<path style="fill:#808080;" d="M245.122,464.942l0.004-0.005c0.024-0.031,0.047-0.06,0.071-0.089l-0.196-0.141l-0.305-0.223
				c-0.017,0.024-0.497,0.465-0.876,1.28c-0.016-0.026-0.035-0.051-0.056-0.074c-0.114-0.124-0.272-0.187-0.474-0.184
				c-0.003,0-0.006,0-0.009,0c-0.125,0-0.21-0.042-0.267-0.092c0.056-0.071,0.089-0.16,0.089-0.258c0-0.23-0.187-0.418-0.418-0.418
				c-0.23,0-0.418,0.188-0.418,0.418c0,0.231,0.187,0.418,0.418,0.418c0.036,0,0.071-0.006,0.104-0.013
				c0.103,0.114,0.266,0.214,0.505,0.209c0.123-0.001,0.213,0.031,0.273,0.097c0.069,0.076,0.093,0.185,0.1,0.267
				c-0.001,0.001-0.001,0.003-0.002,0.003c-0.272,0.743-0.194,1.669-0.194,1.669l0.661,0.026c0.013-0.337,0.062-0.927,0.232-1.394
				C244.693,465.532,245.105,464.965,245.122,464.942z"/>
			<path style="fill:#808080;" d="M256.539,463.082c-0.23,0-0.418,0.187-0.418,0.418c0,0.036,0.005,0.07,0.015,0.103
				c-0.115,0.104-0.214,0.267-0.211,0.507c0.002,0.123-0.03,0.212-0.096,0.273c-0.053,0.047-0.12,0.072-0.185,0.088
				c-0.492-0.689-1.097-1.11-1.097-1.11l-0.474,0.508c0.358,0.326,0.725,0.734,1.08,1.244c0.246,0.352,0.499,0.806,0.71,1.259
				l0.64-0.304c0,0-0.292-0.722-0.704-1.37c0.072-0.025,0.144-0.064,0.207-0.12c0.125-0.113,0.187-0.273,0.183-0.474
				c-0.001-0.13,0.042-0.218,0.093-0.276c0.071,0.054,0.16,0.089,0.257,0.089c0.232,0,0.419-0.187,0.419-0.418
				C256.958,463.269,256.771,463.082,256.539,463.082z"/>
			<path style="fill:#808080;" d="M254.878,468.834c-0.881,0.429-2.33,0.996-4.238,1.262c-0.749,0.104-1.475,0.142-2.143,0.142
				c-0.869,0-1.637-0.065-2.227-0.139c-0.673-0.085-1.199-0.189-1.52-0.261c0.077,0.245,0.171,0.488,0.283,0.724
				c0.002,0.006,0.005,0.013,0.008,0.017c0.013,0.027,0.027,0.056,0.041,0.084c0.013,0.027,0.027,0.054,0.041,0.079
				c0.004,0.007,0.007,0.015,0.011,0.021c0.189,0.356,0.417,0.684,0.675,0.968c0.9,0.984,1.817,1.14,1.826,1.141l0.014,0.002
				l0.013,0.005c0.008,0.003,0.821,0.266,2.057,0.266c1.216,0,2.409-0.245,3.546-0.729c0.842-0.431,1.639-1.085,2.034-1.669
				c0.305-0.452,0.525-0.933,0.656-1.434c0.07-0.266,0.124-0.692,0.092-1.141C255.8,468.338,255.408,468.576,254.878,468.834z"/>
			<path style="fill:#808080;" d="M245.405,465.15c-0.026,0.037-0.408,0.578-0.709,1.408c-0.226,0.622-0.216,1.527-0.216,1.537
				v0.002c0,0.212,0.012,0.423,0.035,0.632c0,0.005,0,0.008,0.001,0.011c0.002,0.027,0.007,0.053,0.009,0.079
				c0.019,0.145,0.043,0.291,0.074,0.439c0.438,0.111,3.049,0.72,5.968,0.314c1.829-0.254,3.218-0.795,4.062-1.204
				c0.701-0.34,1.151-0.648,1.325-0.774c-0.173-0.643-0.651-1.65-1.09-2.279c-1.253-1.791-2.604-2.25-3.298-2.365
				c-0.265-0.043-0.477-0.068-0.777-0.068c-0.28,0-0.626,0.022-1.089,0.071c-0.464,0.048-0.982,0.17-1.583,0.372
				c-0.842,0.282-1.605,0.725-2.204,1.28l-0.021,0.019C245.804,464.707,245.618,464.879,245.405,465.15z M253.073,464.733
				c0.601,0,1.09,0.488,1.09,1.09c0,0.601-0.489,1.09-1.09,1.09c-0.601,0-1.089-0.489-1.089-1.09
				C251.984,465.222,252.472,464.733,253.073,464.733z M247.922,464.69c0.973,0,1.76,0.789,1.76,1.761
				c0,0.972-0.788,1.759-1.76,1.759c-0.972,0-1.76-0.787-1.76-1.759C246.162,465.479,246.951,464.69,247.922,464.69z"/>
		</g>
	</g>
</g>
</svg>
