<svg xmlns="http://www.w3.org/2000/svg" xmlns:xlink="http://www.w3.org/1999/xlink" version="1.1" x="0px" y="0px" viewBox="0 0 184.062 219.23874999999998" style="enable-background:new 0 0 184.062 175.391;" xml:space="preserve"><g><path d="M93.062,154.947v-36h10v-7h-10v-7.52c0,0.043-0.583,0.071-0.929,0.081c-0.987,0.029-2.013,0.042-2.98,0.042   c-2.418,0-5.091-0.106-7.091-0.271v11.831c-1-1.229-2-2.214-4-2.898v-9.31c-2-0.204-3-0.439-5-0.732v8.777h-36.71   c0.019-7,1.011-15.301,2.27-22.645C25.845,80.701,19.33,71.548,18.832,70.829c-3.229-4.672-2.055-11.079,2.617-14.308   c1.729-1.195,3.751-1.817,5.849-1.817c3.371,0,6.533,1.654,8.457,4.416c0.254,0.36,2.655,3.675,7.266,7.766   c1.073-8.967-2.733-18.297-10.192-20.156c-8.537-2.129-20.912,2.508-25.947,17.151C0.077,84.055-1.386,97.186,1.2,119.401   c2.857,14.703,12.306,17.271,20.904,17.532c0.496,0.06,0.997,0.014,1.509,0.014h13.641l-16.758,13.389   c-5.406,4.293-6.31,12.198-2.018,17.605c2.468,3.108,6.115,4.75,9.798,4.75c2.724-0.001,5.506-0.876,7.805-2.7l36.982-29.319   v21.688c0,1.439,1.06,2.606,2.5,2.606c1.438,0,2.5-1.167,2.5-2.606v-25.825l2.652-2.127c0.496-0.394,1.348-0.822,1.348-1.275   v36.756c0,3.038,2.462,5.502,5.5,5.502c3.037,0,5.5-2.463,5.5-5.502v-7.942h10v-7H93.062z"/><path d="M150.239,95.994c-0.111-1.401-0.236-2.791-0.363-4.129c-0.863,0.605-1.702,1.161-2.495,1.664   C148.454,94.206,149.418,95.035,150.239,95.994z"/><path d="M109.294,93.531c-0.793-0.503-1.632-1.059-2.495-1.664c-0.127,1.338-0.252,2.728-0.363,4.13   C107.256,95.036,108.221,94.206,109.294,93.531z"/><path d="M168.562,86.785c-3.038,0-5.5,2.464-5.5,5.502v19.66h-10v7h10v36h-10v7h10v7.942c0,3.038,2.462,5.502,5.5,5.502   c3.037,0,5.5-2.463,5.5-5.502V92.286C174.062,89.248,171.6,86.785,168.562,86.785z"/><path d="M181.062,97.209c-1.44,0-3,1.167-3,2.606v62.545c0,1.439,1.56,2.606,3,2.606c1.438,0,3-1.167,3-2.606V99.815   C184.062,98.376,182.5,97.209,181.062,97.209z"/><path d="M111.397,92.468c1.409-0.551,2.936-0.865,4.538-0.865c2.105,0,4.088,0.528,5.83,1.451c0.291-0.333,0.557-0.695,0.772-1.104   c1.493-2.828,0.409-6.332-2.419-7.824c-6.308-3.329-13.67-9.437-13.706-12.323c-0.08-6.428,0.521-11.491,1.479-15.495l1.973,0.368   c-0.933,3.838-1.53,8.772-1.451,15.102c0.159,1.584,6.009,7.08,12.639,10.58c1.841,0.971,3.192,2.6,3.808,4.589   c0.615,1.988,0.419,4.097-0.553,5.938c-0.24,0.455-0.533,0.867-0.849,1.258c2.632,1.991,4.454,4.99,4.881,8.424   c0.426-3.433,2.247-6.432,4.879-8.423c-0.316-0.391-0.61-0.804-0.85-1.26c-0.971-1.84-1.167-3.949-0.552-5.937   c0.615-1.989,1.967-3.618,3.809-4.589c6.629-3.499,12.479-8.995,12.639-10.592c0.084-6.771-0.605-11.943-1.654-15.886l1.993-0.322   c1.064,4.113,1.746,9.413,1.661,16.246c-0.035,2.887-7.397,8.995-13.706,12.323c-2.829,1.492-3.912,4.996-2.419,7.824   c0.215,0.409,0.481,0.771,0.772,1.105c1.743-0.923,3.726-1.451,5.832-1.451c1.601,0,3.128,0.314,4.537,0.864   c5.901-3.623,16.452-11.372,16.566-20.522c0.09-7.272-0.607-13.273-1.786-18.243c-2.751-11.596-8.151-17.517-12.501-20.5   c-3.573,9.002-10.818,16.652-19.218,16.652c-8.403,0-15.648-7.651-19.222-16.653c-4.411,3.025-9.907,9.058-12.621,20.979   c-1.11,4.874-1.754,10.73-1.666,17.766C94.944,81.096,105.496,88.845,111.397,92.468z"/><rect x="85.062" y="56.947" width="6" height="25"/><rect x="166.062" y="56.947" width="6" height="25"/><path d="M126.062,104.112c0-5.437-4.563-9.845-10-9.845s-10,4.408-10,9.845v60.808c0,5.437,4.563,9.845,10,9.845s10-4.408,10-9.845   V104.112z"/><path d="M151.062,104.112c0-5.437-4.563-9.845-10-9.845s-10,4.408-10,9.845v60.808c0,5.437,4.563,9.845,10,9.845s10-4.408,10-9.845   V104.112z"/><path d="M128.339,47.393c10.564,0,19.132-14.332,19.132-25.892c0-11.56-8.567-20.932-19.132-20.932   c-10.569,0-19.133,9.372-19.133,20.932C109.206,33.061,117.77,47.393,128.339,47.393z"/><circle cx="48.85" cy="22.5" r="22.5"/><path d="M33.868,60.44c-2.518-3.614-7.488-4.512-11.111-2.006c-3.635,2.512-4.544,7.495-2.032,11.13   c0.94,1.361,23.125,32.687,68.569,32.687c0.945,0,1.903-0.014,2.869-0.042c4.416-0.126,7.894-3.81,7.768-8.226   c-0.127-4.416-3.778-7.91-8.227-7.767C53.338,87.302,34.682,61.594,33.868,60.44z"/></g><text x="0" y="190.391" fill="#000000" font-size="5px" font-weight="bold" font-family="'Helvetica Neue', Helvetica, Arial-Unicode, Arial, Sans-serif">Created by Gan Khoon Lay</text><text x="0" y="195.391" fill="#000000" font-size="5px" font-weight="bold" font-family="'Helvetica Neue', Helvetica, Arial-Unicode, Arial, Sans-serif">from the Noun Project</text></svg>